include "include/hUGE.inc"

SECTION "Song Data", ROMX

sample_song::
db 2
dw order_cnt
dw order1, order2, order3, order4
dw duty_instruments, wave_instruments, noise_instruments
dw routines
dw waves

order_cnt: db 68
order1: dw P0,P0,P0,P0,P0,P0,P0,P0,P0,P0,P11,P11,P12,P15,P11,P11,P12,P19,P11,P11,P12,P15,P11,P11,P12,P19,P29,P32,P11,P11,P29,P32,P11,P11
order2: dw P1,P1,P1,P1,P1,P1,P1,P1,P1,P1,P10,P10,P13,P16,P10,P10,P13,P20,P10,P10,P13,P16,P10,P10,P13,P20,P30,P33,P35,P10,P30,P33,P35,P38
order3: dw P2,P2,P4,P4,P5,P6,P4,P4,P5,P8,P9,P9,P14,P17,P9,P9,P14,P18,P21,P22,P23,P24,P25,P26,P27,P28,P31,P34,P36,P37,P31,P34,P36,P39
order4: dw P3,P3,P3,P3,P3,P3,P3,P3,P3,P7,P3,P3,P3,P3,P3,P3,P3,P7,P3,P3,P3,P3,P3,P3,P3,P7,P3,P3,P3,P3,P3,P3,P3,P7

P0:
 dn C_5,1,$2FF
 dn ___,0,$2FF
 dn C_3,0,$216
 dn ___,0,$218
 dn ___,0,$000
 dn ___,0,$000
 dn ___,0,$000
 dn ___,0,$000
 dn C_6,1,$2FF
 dn ___,0,$2FF
 dn C_3,0,$216
 dn ___,0,$218
 dn ___,0,$000
 dn ___,0,$000
 dn ___,0,$000
 dn ___,0,$000
 dn C_5,1,$2FF
 dn ___,0,$2FF
 dn C_3,0,$216
 dn ___,0,$218
 dn C_5,1,$2FF
 dn ___,0,$2FF
 dn C_3,0,$216
 dn ___,0,$218
 dn C_6,1,$2FF
 dn ___,0,$2FF
 dn C_3,0,$216
 dn ___,0,$218
 dn ___,0,$000
 dn ___,0,$000
 dn ___,0,$000
 dn ___,0,$000
 dn C_5,1,$2FF
 dn ___,0,$2FF
 dn C_3,0,$216
 dn ___,0,$218
 dn ___,0,$000
 dn ___,0,$000
 dn ___,0,$000
 dn ___,0,$000
 dn C_6,1,$2FF
 dn ___,0,$2FF
 dn C_3,0,$216
 dn ___,0,$218
 dn C_5,1,$2FF
 dn ___,0,$2FF
 dn C_3,0,$216
 dn ___,0,$218
 dn ___,0,$000
 dn ___,0,$000
 dn ___,0,$000
 dn ___,0,$000
 dn C_5,1,$2FF
 dn ___,0,$2FF
 dn C_3,0,$216
 dn ___,0,$218
 dn C_6,1,$2FF
 dn ___,0,$2FF
 dn C_3,0,$216
 dn ___,0,$218
 dn ___,0,$000
 dn ___,0,$000
 dn ___,0,$000
 dn ___,0,$000

P1:
 dn ___,0,$000
 dn ___,0,$000
 dn ___,0,$000
 dn ___,0,$000
 dn C_5,2,$2FF
 dn ___,0,$2FF
 dn C_3,0,$216
 dn ___,0,$218
 dn ___,0,$000
 dn ___,0,$000
 dn ___,0,$000
 dn ___,0,$000
 dn C_6,2,$2FF
 dn ___,0,$2FF
 dn C_3,0,$216
 dn ___,0,$218
 dn ___,0,$000
 dn ___,0,$000
 dn ___,0,$000
 dn ___,0,$000
 dn C_5,2,$2FF
 dn ___,0,$2FF
 dn C_3,0,$216
 dn ___,0,$218
 dn C_5,2,$2FF
 dn ___,0,$2FF
 dn C_3,0,$216
 dn ___,0,$218
 dn C_6,2,$2FF
 dn ___,0,$2FF
 dn C_3,0,$216
 dn ___,0,$218
 dn ___,0,$000
 dn ___,0,$000
 dn ___,0,$000
 dn ___,0,$000
 dn C_5,2,$2FF
 dn ___,0,$2FF
 dn C_3,0,$216
 dn ___,0,$218
 dn ___,0,$000
 dn ___,0,$000
 dn ___,0,$000
 dn ___,0,$000
 dn C_6,2,$2FF
 dn ___,0,$2FF
 dn C_3,0,$216
 dn ___,0,$218
 dn C_5,2,$2FF
 dn ___,0,$2FF
 dn C_3,0,$216
 dn ___,0,$218
 dn ___,0,$000
 dn ___,0,$000
 dn ___,0,$000
 dn ___,0,$000
 dn C_5,2,$2FF
 dn ___,0,$2FF
 dn C_3,0,$216
 dn ___,0,$218
 dn C_6,2,$2FF
 dn ___,0,$2FF
 dn C_3,0,$216
 dn ___,0,$218

P2:
 dn ___,0,$000
 dn ___,0,$000
 dn ___,0,$000
 dn ___,0,$000
 dn ___,0,$000
 dn ___,0,$000
 dn ___,0,$000
 dn ___,0,$000
 dn ___,0,$000
 dn ___,0,$000
 dn ___,0,$000
 dn ___,0,$000
 dn ___,0,$000
 dn ___,0,$000
 dn ___,0,$000
 dn ___,0,$000
 dn ___,0,$000
 dn ___,0,$000
 dn ___,0,$000
 dn ___,0,$000
 dn ___,0,$000
 dn ___,0,$000
 dn ___,0,$000
 dn ___,0,$000
 dn ___,0,$000
 dn ___,0,$000
 dn ___,0,$000
 dn ___,0,$000
 dn ___,0,$000
 dn ___,0,$000
 dn ___,0,$000
 dn ___,0,$000
 dn ___,0,$000
 dn ___,0,$000
 dn ___,0,$000
 dn ___,0,$000
 dn ___,0,$000
 dn ___,0,$000
 dn ___,0,$000
 dn ___,0,$000
 dn ___,0,$000
 dn ___,0,$000
 dn ___,0,$000
 dn ___,0,$000
 dn ___,0,$000
 dn ___,0,$000
 dn ___,0,$000
 dn ___,0,$000
 dn ___,0,$000
 dn ___,0,$000
 dn ___,0,$000
 dn ___,0,$000
 dn ___,0,$000
 dn ___,0,$000
 dn ___,0,$000
 dn ___,0,$000
 dn ___,0,$000
 dn ___,0,$000
 dn ___,0,$000
 dn ___,0,$000
 dn ___,0,$000
 dn ___,0,$000
 dn ___,0,$000
 dn ___,0,$000

P3:
 dn F_7,1,$000
 dn F_6,2,$000
 dn ___,0,$000
 dn ___,0,$000
 dn ___,0,$000
 dn ___,0,$000
 dn ___,0,$000
 dn ___,0,$000
 dn C_7,3,$000
 dn D#8,3,$000
 dn ___,0,$000
 dn ___,0,$000
 dn ___,0,$000
 dn ___,0,$000
 dn ___,0,$000
 dn ___,0,$000
 dn F_7,1,$000
 dn F_6,2,$000
 dn ___,0,$000
 dn ___,0,$000
 dn F_7,1,$000
 dn F_6,2,$000
 dn ___,0,$000
 dn ___,0,$000
 dn C_7,3,$000
 dn D#8,3,$000
 dn ___,0,$000
 dn ___,0,$000
 dn ___,0,$000
 dn ___,0,$000
 dn ___,0,$000
 dn ___,0,$000
 dn F_7,1,$000
 dn F_6,2,$000
 dn ___,0,$000
 dn ___,0,$000
 dn ___,0,$000
 dn ___,0,$000
 dn ___,0,$000
 dn ___,0,$000
 dn C_7,3,$000
 dn D#8,3,$000
 dn ___,0,$000
 dn ___,0,$000
 dn F_7,1,$000
 dn F_6,2,$000
 dn ___,0,$000
 dn ___,0,$000
 dn ___,0,$000
 dn ___,0,$000
 dn ___,0,$000
 dn ___,0,$000
 dn F_7,1,$000
 dn F_6,2,$000
 dn ___,0,$000
 dn ___,0,$000
 dn C_7,3,$000
 dn D#8,3,$000
 dn ___,0,$000
 dn ___,0,$000
 dn ___,0,$000
 dn ___,0,$000
 dn ___,0,$000
 dn ___,0,$000

P4:
 dn C_4,4,$C0F
 dn ___,0,$000
 dn C_4,5,$C0F
 dn ___,0,$000
 dn C_4,6,$C07
 dn ___,0,$000
 dn C_4,7,$C07
 dn ___,0,$000
 dn C_4,6,$C0F
 dn ___,0,$000
 dn C_4,5,$C0F
 dn ___,0,$000
 dn C_4,4,$C07
 dn ___,0,$000
 dn C_4,5,$C07
 dn ___,0,$000
 dn C_4,6,$C0F
 dn ___,0,$000
 dn C_4,7,$C0F
 dn ___,0,$000
 dn G_3,6,$C0F
 dn ___,0,$000
 dn G_3,5,$C0F
 dn ___,0,$000
 dn A#3,4,$C0F
 dn ___,0,$000
 dn A#3,5,$C0F
 dn ___,0,$000
 dn C_4,6,$C0F
 dn ___,0,$000
 dn C_4,7,$C0F
 dn ___,0,$000
 dn C_4,6,$C07
 dn ___,0,$000
 dn C_4,5,$C07
 dn ___,0,$000
 dn C_4,4,$C0F
 dn ___,0,$000
 dn C_4,5,$C0F
 dn ___,0,$000
 dn C_4,6,$C07
 dn ___,0,$000
 dn C_4,7,$C07
 dn ___,0,$000
 dn C_4,6,$C0F
 dn ___,0,$000
 dn C_4,5,$C0F
 dn ___,0,$000
 dn C_4,4,$C0F
 dn ___,0,$000
 dn C_4,5,$C0F
 dn ___,0,$000
 dn G_3,6,$C0F
 dn ___,0,$000
 dn G_3,7,$C0F
 dn ___,0,$000
 dn A#3,6,$C0F
 dn ___,0,$000
 dn A#3,5,$C0F
 dn ___,0,$000
 dn G_3,4,$C0F
 dn ___,0,$000
 dn G_3,5,$C0F
 dn ___,0,$000

P5:
 dn D#4,4,$C0F
 dn ___,0,$000
 dn D#4,5,$C0F
 dn ___,0,$000
 dn D#4,6,$C07
 dn ___,0,$000
 dn D#4,7,$C07
 dn ___,0,$000
 dn D#4,6,$C0F
 dn ___,0,$000
 dn D#4,5,$C0F
 dn ___,0,$000
 dn D#4,4,$C07
 dn ___,0,$000
 dn D#4,5,$C07
 dn ___,0,$000
 dn D#4,6,$C0F
 dn ___,0,$000
 dn D#4,7,$C0F
 dn ___,0,$000
 dn A#3,6,$C0F
 dn ___,0,$000
 dn A#3,5,$C0F
 dn ___,0,$000
 dn C#4,4,$C0F
 dn ___,0,$000
 dn C#4,5,$C0F
 dn ___,0,$000
 dn D#4,6,$C0F
 dn ___,0,$000
 dn D#4,7,$C0F
 dn ___,0,$000
 dn D#4,6,$C07
 dn ___,0,$000
 dn D#4,5,$C07
 dn ___,0,$000
 dn D#4,4,$C0F
 dn ___,0,$000
 dn D#4,5,$C0F
 dn ___,0,$000
 dn D#4,6,$C07
 dn ___,0,$000
 dn D#4,7,$C07
 dn ___,0,$000
 dn D#4,6,$C0F
 dn ___,0,$000
 dn D#4,5,$C0F
 dn ___,0,$000
 dn D#4,4,$C0F
 dn ___,0,$000
 dn D#4,5,$C0F
 dn ___,0,$000
 dn A#3,6,$C0F
 dn ___,0,$000
 dn A#3,7,$C0F
 dn ___,0,$000
 dn C#4,6,$C0F
 dn ___,0,$000
 dn C#4,5,$C0F
 dn ___,0,$000
 dn A#3,4,$C0F
 dn ___,0,$000
 dn A#3,5,$C0F
 dn ___,0,$000

P6:
 dn F_4,4,$C0F
 dn ___,0,$000
 dn F_4,5,$C0F
 dn ___,0,$000
 dn F_4,6,$C07
 dn ___,0,$000
 dn F_4,7,$C07
 dn ___,0,$000
 dn F_4,6,$C0F
 dn ___,0,$000
 dn F_4,5,$C0F
 dn ___,0,$000
 dn F_4,4,$C07
 dn ___,0,$000
 dn F_4,5,$C07
 dn ___,0,$000
 dn F_4,6,$C0F
 dn ___,0,$000
 dn F_4,7,$C0F
 dn ___,0,$000
 dn C_4,6,$C0F
 dn ___,0,$000
 dn C_4,5,$C0F
 dn ___,0,$000
 dn D#4,4,$C0F
 dn ___,0,$000
 dn D#4,5,$C0F
 dn ___,0,$000
 dn G_4,6,$C0F
 dn ___,0,$000
 dn G_4,7,$C0F
 dn ___,0,$000
 dn G_4,6,$C07
 dn ___,0,$000
 dn G_4,5,$C07
 dn ___,0,$000
 dn G_4,4,$C0F
 dn ___,0,$000
 dn G_4,5,$C0F
 dn ___,0,$000
 dn G_4,6,$C07
 dn ___,0,$000
 dn G_4,7,$C07
 dn ___,0,$000
 dn G_4,6,$C0F
 dn ___,0,$000
 dn G_4,5,$C0F
 dn ___,0,$000
 dn G_4,4,$C0F
 dn ___,0,$000
 dn G_4,5,$C0F
 dn ___,0,$000
 dn D#4,6,$C0F
 dn ___,0,$000
 dn D#4,7,$C0F
 dn ___,0,$000
 dn D_4,6,$C0F
 dn ___,0,$000
 dn D_4,5,$C0F
 dn ___,0,$000
 dn A#3,4,$C0F
 dn ___,0,$000
 dn A#3,5,$C0F
 dn ___,0,$000

P7:
 dn F_7,1,$000
 dn F_6,2,$000
 dn ___,0,$000
 dn ___,0,$000
 dn ___,0,$000
 dn ___,0,$000
 dn ___,0,$000
 dn ___,0,$000
 dn C_7,3,$000
 dn D#8,3,$000
 dn ___,0,$000
 dn ___,0,$000
 dn ___,0,$000
 dn ___,0,$000
 dn ___,0,$000
 dn ___,0,$000
 dn F_7,1,$000
 dn F_6,2,$000
 dn ___,0,$000
 dn ___,0,$000
 dn F_7,1,$000
 dn F_6,2,$000
 dn ___,0,$000
 dn ___,0,$000
 dn C_7,3,$000
 dn D#8,3,$000
 dn ___,0,$000
 dn ___,0,$000
 dn ___,0,$000
 dn ___,0,$000
 dn ___,0,$000
 dn ___,0,$000
 dn C_7,3,$000
 dn D#8,3,$C65
 dn ___,0,$000
 dn ___,0,$000
 dn ___,0,$000
 dn ___,0,$000
 dn ___,0,$000
 dn ___,0,$000
 dn ___,0,$000
 dn ___,0,$000
 dn ___,0,$000
 dn ___,0,$000
 dn ___,0,$000
 dn ___,0,$000
 dn ___,0,$000
 dn ___,0,$000
 dn ___,0,$000
 dn ___,0,$000
 dn ___,0,$000
 dn ___,0,$000
 dn D#8,3,$CC0
 dn ___,0,$000
 dn ___,0,$000
 dn ___,0,$000
 dn B_7,0,$000
 dn A#7,0,$000
 dn A_7,0,$000
 dn F#7,0,$000
 dn F_7,0,$000
 dn E_7,0,$000
 dn D#7,0,$000
 dn D_7,0,$000

P8:
 dn F_4,4,$C0F
 dn ___,0,$000
 dn F_4,5,$C0F
 dn ___,0,$000
 dn F_4,6,$C07
 dn ___,0,$000
 dn F_4,7,$C07
 dn ___,0,$000
 dn F_4,6,$C0F
 dn ___,0,$000
 dn F_4,5,$C0F
 dn ___,0,$000
 dn F_4,4,$C07
 dn ___,0,$000
 dn F_4,5,$C07
 dn ___,0,$000
 dn F_4,6,$C0F
 dn ___,0,$000
 dn F_4,7,$C0F
 dn ___,0,$000
 dn D#4,6,$C0F
 dn ___,0,$000
 dn D#4,5,$C0F
 dn ___,0,$000
 dn D_4,4,$C0F
 dn ___,0,$000
 dn D_4,5,$C0F
 dn ___,0,$000
 dn A#3,6,$C0F
 dn ___,0,$000
 dn A#3,7,$C0F
 dn ___,0,$000
 dn A#3,6,$C07
 dn ___,0,$000
 dn A#3,5,$C07
 dn ___,0,$000
 dn A#3,4,$C07
 dn ___,0,$000
 dn A#3,5,$C07
 dn ___,0,$000
 dn A#3,6,$C03
 dn ___,0,$000
 dn A#3,7,$C03
 dn ___,0,$000
 dn A#3,6,$C03
 dn ___,0,$000
 dn A#3,5,$C03
 dn ___,0,$000
 dn A#3,4,$C07
 dn ___,0,$000
 dn A#3,5,$C07
 dn ___,0,$000
 dn A#3,6,$C07
 dn ___,0,$000
 dn A#3,7,$C07
 dn ___,0,$000
 dn A#3,6,$C0F
 dn ___,0,$000
 dn A#3,5,$C0F
 dn ___,0,$000
 dn A#3,4,$C0F
 dn ___,0,$000
 dn A#3,5,$C0F
 dn ___,0,$000

P9:
 dn C_6,3,$C0F
 dn C_6,4,$C0F
 dn G_6,3,$C07
 dn G_6,4,$C07
 dn D#6,3,$C0F
 dn D#6,4,$C0F
 dn C_6,3,$C07
 dn C_6,4,$C07
 dn G_6,3,$C0F
 dn G_6,4,$C0F
 dn G_6,3,$C07
 dn G_6,4,$C07
 dn C_6,3,$C0F
 dn C_6,4,$C0F
 dn G_6,3,$C07
 dn G_6,4,$C07
 dn D#6,3,$C0F
 dn D#6,4,$C0F
 dn C_6,3,$C07
 dn C_6,4,$C07
 dn G_6,3,$C0F
 dn G_6,4,$C0F
 dn G_6,3,$C07
 dn G_6,4,$C07
 dn C_6,3,$C0F
 dn C_6,4,$C0F
 dn G_6,3,$C07
 dn G_6,4,$C07
 dn D#6,3,$C0F
 dn D#6,4,$C0F
 dn C_6,3,$C07
 dn C_6,4,$C07
 dn G_6,3,$C0F
 dn G_6,4,$C0F
 dn G_6,3,$C07
 dn G_6,4,$C07
 dn C_6,3,$C0F
 dn C_6,4,$C0F
 dn G_6,3,$C07
 dn G_6,4,$C07
 dn D#6,3,$C0F
 dn D#6,4,$C0F
 dn C_6,3,$C07
 dn C_6,4,$C07
 dn G_6,3,$C0F
 dn G_6,4,$C0F
 dn G_6,3,$C07
 dn G_6,4,$C07
 dn C_6,3,$C0F
 dn C_6,4,$C0F
 dn G_6,3,$C07
 dn G_6,4,$C07
 dn D#6,3,$C0F
 dn D#6,4,$C0F
 dn C_6,3,$C07
 dn C_6,4,$C07
 dn G_6,3,$C0F
 dn G_6,4,$C0F
 dn G_6,3,$C07
 dn G_6,4,$C07
 dn D#6,3,$C0F
 dn D#6,4,$C0F
 dn G_6,3,$C07
 dn G_6,4,$C07

P10:
 dn C_5,3,$900
 dn D#5,0,$000
 dn G_5,0,$940
 dn C_5,0,$000
 dn D#5,0,$980
 dn G_5,0,$000
 dn C_5,0,$9C0
 dn D#5,0,$000
 dn G_5,3,$900
 dn C_5,0,$000
 dn D#5,0,$940
 dn G_5,0,$000
 dn C_5,0,$980
 dn D#5,0,$000
 dn G_5,0,$9C0
 dn C_5,0,$000
 dn D#5,3,$900
 dn G_5,0,$000
 dn C_5,0,$940
 dn D#5,0,$000
 dn G_5,0,$980
 dn C_5,0,$000
 dn D#5,0,$9C0
 dn G_5,0,$000
 dn C_5,3,$900
 dn D#5,0,$000
 dn G_5,0,$940
 dn C_5,0,$000
 dn D#5,0,$980
 dn G_5,0,$000
 dn C_5,0,$9C0
 dn D#5,0,$000
 dn G_5,3,$900
 dn C_5,0,$000
 dn D#5,0,$940
 dn G_5,0,$000
 dn C_5,0,$980
 dn D#5,0,$000
 dn G_5,0,$9C0
 dn C_5,0,$000
 dn D#5,3,$900
 dn G_5,0,$000
 dn C_5,0,$940
 dn D#5,0,$000
 dn G_5,0,$980
 dn C_5,0,$000
 dn D#5,0,$9C0
 dn G_5,0,$000
 dn C_5,3,$900
 dn D#5,0,$000
 dn G_5,0,$940
 dn C_5,0,$000
 dn D#5,0,$980
 dn G_5,0,$000
 dn C_5,0,$9C0
 dn D#5,0,$000
 dn G_5,3,$900
 dn C_5,0,$000
 dn D#5,0,$940
 dn G_5,0,$000
 dn C_5,0,$980
 dn D#5,0,$000
 dn G_5,0,$9C0
 dn C_5,0,$000

P11:
 dn C_5,4,$000
 dn C_3,5,$000
 dn ___,0,$000
 dn ___,0,$000
 dn C_3,5,$000
 dn ___,0,$000
 dn ___,0,$000
 dn ___,0,$000
 dn F#5,6,$000
 dn C_3,5,$000
 dn ___,0,$000
 dn ___,0,$000
 dn C_5,4,$000
 dn C_3,5,$000
 dn ___,0,$000
 dn ___,0,$000
 dn C_3,5,$000
 dn ___,0,$000
 dn ___,0,$000
 dn ___,0,$000
 dn C_5,4,$000
 dn G_3,5,$000
 dn ___,0,$000
 dn ___,0,$000
 dn F#5,6,$000
 dn A#3,5,$000
 dn ___,0,$000
 dn ___,0,$000
 dn C_4,5,$000
 dn ___,0,$000
 dn ___,0,$000
 dn ___,0,$000
 dn C_5,4,$000
 dn C_3,5,$000
 dn ___,0,$000
 dn ___,0,$000
 dn C_3,5,$000
 dn ___,0,$000
 dn ___,0,$000
 dn ___,0,$000
 dn F#5,6,$000
 dn C_3,5,$000
 dn ___,0,$000
 dn ___,0,$000
 dn C_5,4,$000
 dn C_3,5,$000
 dn ___,0,$000
 dn ___,0,$000
 dn C_3,5,$000
 dn ___,0,$000
 dn ___,0,$000
 dn ___,0,$000
 dn C_5,4,$000
 dn G_3,5,$000
 dn ___,0,$000
 dn ___,0,$000
 dn F#5,6,$000
 dn A#3,5,$000
 dn ___,0,$000
 dn ___,0,$000
 dn C_4,5,$000
 dn ___,0,$000
 dn ___,0,$000
 dn ___,0,$000

P12:
 dn D#5,4,$000
 dn D#3,5,$000
 dn ___,0,$000
 dn ___,0,$000
 dn D#3,5,$000
 dn ___,0,$000
 dn ___,0,$000
 dn ___,0,$000
 dn A_5,6,$000
 dn D#3,5,$000
 dn ___,0,$000
 dn ___,0,$000
 dn D#5,4,$000
 dn D#3,5,$000
 dn ___,0,$000
 dn ___,0,$000
 dn D#3,5,$000
 dn ___,0,$000
 dn ___,0,$000
 dn ___,0,$000
 dn D#5,4,$000
 dn A#3,5,$000
 dn ___,0,$000
 dn ___,0,$000
 dn A_5,6,$000
 dn C#4,5,$000
 dn ___,0,$000
 dn ___,0,$000
 dn D#4,5,$000
 dn ___,0,$000
 dn ___,0,$000
 dn ___,0,$000
 dn D#5,4,$000
 dn D#3,5,$000
 dn ___,0,$000
 dn ___,0,$000
 dn D#3,5,$000
 dn ___,0,$000
 dn ___,0,$000
 dn ___,0,$000
 dn A_5,6,$000
 dn D#3,5,$000
 dn ___,0,$000
 dn ___,0,$000
 dn D#5,4,$000
 dn D#3,5,$000
 dn ___,0,$000
 dn ___,0,$000
 dn D#3,5,$000
 dn ___,0,$000
 dn ___,0,$000
 dn ___,0,$000
 dn D#5,4,$000
 dn A#3,5,$000
 dn ___,0,$000
 dn ___,0,$000
 dn A_5,6,$000
 dn C#4,5,$000
 dn ___,0,$000
 dn ___,0,$000
 dn D#4,5,$000
 dn ___,0,$000
 dn ___,0,$000
 dn ___,0,$000

P13:
 dn D#5,3,$900
 dn G_5,0,$000
 dn A#5,0,$940
 dn D#5,0,$000
 dn G_5,0,$980
 dn A#5,0,$000
 dn D#5,0,$9C0
 dn G_5,0,$000
 dn A#5,3,$900
 dn D#5,0,$000
 dn G_5,0,$940
 dn A#5,0,$000
 dn D#5,0,$980
 dn G_5,0,$000
 dn A#5,0,$9C0
 dn D#5,0,$000
 dn G_5,3,$900
 dn A#5,0,$000
 dn D#5,0,$940
 dn G_5,0,$000
 dn A#5,0,$980
 dn D#5,0,$000
 dn G_5,0,$9C0
 dn A#5,0,$000
 dn D#5,3,$900
 dn G_5,0,$000
 dn A#5,0,$940
 dn D#5,0,$000
 dn G_5,0,$980
 dn A#5,0,$000
 dn D#5,0,$9C0
 dn G_5,0,$000
 dn A#5,3,$900
 dn D#5,0,$000
 dn G_5,0,$940
 dn A#5,0,$000
 dn D#5,0,$980
 dn G_5,0,$000
 dn A#5,0,$9C0
 dn D#5,0,$000
 dn G_5,3,$900
 dn A#5,0,$000
 dn D#5,0,$940
 dn G_5,0,$000
 dn A#5,0,$980
 dn D#5,0,$000
 dn G_5,0,$9C0
 dn A#5,0,$000
 dn D#5,3,$900
 dn G_5,0,$000
 dn A#5,0,$940
 dn D#5,0,$000
 dn G_5,0,$980
 dn A#5,0,$000
 dn D#5,0,$9C0
 dn G_5,0,$000
 dn A#5,3,$900
 dn D#5,0,$000
 dn G_5,0,$940
 dn A#5,0,$000
 dn D#5,0,$980
 dn G_5,0,$000
 dn A#5,0,$9C0
 dn D#5,0,$000

P14:
 dn D#6,3,$C0F
 dn D#6,4,$C0F
 dn A#6,3,$C07
 dn A#6,4,$C07
 dn G_6,3,$C0F
 dn G_6,4,$C0F
 dn D#6,3,$C07
 dn D#6,4,$C07
 dn A#6,3,$C0F
 dn A#6,4,$C0F
 dn G_6,3,$C07
 dn G_6,4,$C07
 dn D#6,3,$C0F
 dn D#6,4,$C0F
 dn A#6,3,$C07
 dn A#6,4,$C07
 dn G_6,3,$C0F
 dn G_6,4,$C0F
 dn D#6,3,$C07
 dn D#6,4,$C07
 dn A#6,3,$C0F
 dn A#6,4,$C0F
 dn G_6,3,$C07
 dn G_6,4,$C07
 dn D#6,3,$C0F
 dn D#6,4,$C0F
 dn A#6,3,$C07
 dn A#6,4,$C07
 dn G_6,3,$C0F
 dn G_6,4,$C0F
 dn D#6,3,$C07
 dn D#6,4,$C07
 dn A#6,3,$C0F
 dn A#6,4,$C0F
 dn G_6,3,$C07
 dn G_6,4,$C07
 dn D#6,3,$C0F
 dn D#6,4,$C0F
 dn A#6,3,$C07
 dn A#6,4,$C07
 dn G_6,3,$C0F
 dn G_6,4,$C0F
 dn D#6,3,$C07
 dn D#6,4,$C07
 dn A#6,3,$C0F
 dn A#6,4,$C0F
 dn G_6,3,$C07
 dn G_6,4,$C07
 dn D#6,3,$C0F
 dn D#6,4,$C0F
 dn A#6,3,$C07
 dn A#6,4,$C07
 dn G_6,3,$C0F
 dn G_6,4,$C0F
 dn D#6,3,$C07
 dn D#6,4,$C07
 dn A#6,3,$C0F
 dn A#6,4,$C0F
 dn G_6,3,$C07
 dn G_6,4,$C07
 dn D#6,3,$C0F
 dn D#6,4,$C0F
 dn A#6,3,$C07
 dn A#6,4,$C07

P15:
 dn F_5,4,$000
 dn F_3,5,$000
 dn ___,0,$000
 dn ___,0,$000
 dn F_3,5,$000
 dn ___,0,$000
 dn ___,0,$000
 dn ___,0,$000
 dn B_5,6,$000
 dn F_3,5,$000
 dn ___,0,$000
 dn ___,0,$000
 dn F_5,4,$000
 dn F_3,5,$000
 dn ___,0,$000
 dn ___,0,$000
 dn F_3,5,$000
 dn ___,0,$000
 dn ___,0,$000
 dn ___,0,$000
 dn F_5,4,$000
 dn C_4,5,$000
 dn ___,0,$000
 dn ___,0,$000
 dn B_5,6,$000
 dn D#4,5,$000
 dn ___,0,$000
 dn ___,0,$000
 dn F_4,5,$000
 dn ___,0,$000
 dn ___,0,$000
 dn ___,0,$000
 dn F_5,4,$000
 dn F_3,5,$000
 dn ___,0,$000
 dn ___,0,$000
 dn F_3,5,$000
 dn ___,0,$000
 dn ___,0,$000
 dn ___,0,$000
 dn B_5,6,$000
 dn F_3,5,$000
 dn ___,0,$000
 dn ___,0,$000
 dn F_5,4,$000
 dn F_3,5,$000
 dn ___,0,$000
 dn ___,0,$000
 dn F_3,5,$000
 dn ___,0,$000
 dn ___,0,$000
 dn ___,0,$000
 dn F_5,4,$000
 dn C_4,5,$000
 dn ___,0,$000
 dn ___,0,$000
 dn B_5,6,$000
 dn D#4,5,$000
 dn ___,0,$000
 dn ___,0,$000
 dn F_4,5,$000
 dn ___,0,$000
 dn ___,0,$000
 dn ___,0,$000

P16:
 dn F_5,3,$900
 dn A_5,0,$000
 dn C_6,0,$940
 dn F_5,0,$000
 dn A_5,0,$980
 dn C_6,0,$000
 dn F_5,0,$9C0
 dn A_5,0,$000
 dn C_6,3,$900
 dn F_5,0,$000
 dn A_5,0,$940
 dn C_6,0,$000
 dn F_5,0,$980
 dn A_5,0,$000
 dn C_6,0,$9C0
 dn F_5,0,$000
 dn A_5,3,$900
 dn C_6,0,$000
 dn F_5,0,$940
 dn A_5,0,$000
 dn C_6,0,$980
 dn F_5,0,$000
 dn A_5,0,$9C0
 dn C_6,0,$000
 dn F_5,3,$900
 dn A_5,0,$000
 dn C_6,0,$940
 dn F_5,0,$000
 dn A_5,0,$980
 dn C_6,0,$000
 dn F_5,0,$9C0
 dn A_5,0,$000
 dn C_6,3,$900
 dn F_5,0,$000
 dn A_5,0,$940
 dn C_6,0,$000
 dn F_5,0,$980
 dn A_5,0,$000
 dn C_6,0,$9C0
 dn F_5,0,$000
 dn A_5,3,$900
 dn C_6,0,$000
 dn F_5,0,$940
 dn A_5,0,$000
 dn C_6,0,$980
 dn F_5,0,$000
 dn A_5,0,$9C0
 dn C_6,0,$000
 dn F_5,3,$900
 dn A_5,0,$000
 dn C_6,0,$940
 dn F_5,0,$000
 dn A_5,0,$980
 dn C_6,0,$000
 dn F_5,0,$9C0
 dn A_5,0,$000
 dn C_6,3,$900
 dn F_5,0,$000
 dn A_5,0,$940
 dn C_6,0,$000
 dn F_5,0,$980
 dn A_5,0,$000
 dn C_6,0,$9C0
 dn F_5,0,$000

P17:
 dn F_6,3,$C0F
 dn F_6,4,$C0F
 dn C_7,3,$C07
 dn C_7,4,$C07
 dn A_6,3,$C0F
 dn A_6,4,$C0F
 dn F_6,3,$C07
 dn F_6,4,$C07
 dn C_7,3,$C0F
 dn C_7,4,$C0F
 dn A_6,3,$C07
 dn A_6,4,$C07
 dn F_6,3,$C0F
 dn F_6,4,$C0F
 dn C_7,3,$C07
 dn C_7,4,$C07
 dn A_6,3,$C0F
 dn A_6,4,$C0F
 dn F_6,3,$C07
 dn F_6,4,$C07
 dn C_7,3,$C0F
 dn C_7,4,$C0F
 dn A_6,3,$C07
 dn A_6,4,$C07
 dn F_6,3,$C0F
 dn F_6,4,$C0F
 dn C_7,3,$C07
 dn C_7,4,$C07
 dn A_6,3,$C0F
 dn A_6,4,$C0F
 dn F_6,3,$C07
 dn F_6,4,$C07
 dn C_7,3,$C0F
 dn C_7,4,$C0F
 dn A_6,3,$C07
 dn A_6,4,$C07
 dn F_6,3,$C0F
 dn F_6,4,$C0F
 dn C_7,3,$C07
 dn C_7,4,$C07
 dn A_6,3,$C0F
 dn A_6,4,$C0F
 dn F_6,3,$C07
 dn F_6,4,$C07
 dn C_7,3,$C0F
 dn C_7,4,$C0F
 dn A_6,3,$C07
 dn A_6,4,$C07
 dn F_6,3,$C0F
 dn F_6,4,$C0F
 dn C_7,3,$C07
 dn C_7,4,$C07
 dn A_6,3,$C0F
 dn A_6,4,$C0F
 dn F_6,3,$C07
 dn F_6,4,$C07
 dn C_7,3,$C0F
 dn C_7,4,$C0F
 dn A_6,3,$C07
 dn A_6,4,$C07
 dn F_6,3,$C0F
 dn F_6,4,$C0F
 dn C_7,3,$C07
 dn C_7,4,$C07

P18:
 dn F_6,3,$C0F
 dn F_6,4,$C0F
 dn C_7,3,$C07
 dn C_7,4,$C07
 dn G#6,3,$C0F
 dn G#6,4,$C0F
 dn F_6,3,$C07
 dn F_6,4,$C07
 dn C_7,3,$C0F
 dn C_7,4,$C0F
 dn G#6,3,$C07
 dn G#6,4,$C07
 dn F_6,3,$C0F
 dn F_6,4,$C0F
 dn C_7,3,$C07
 dn C_7,4,$C07
 dn G#6,3,$C0F
 dn G#6,4,$C0F
 dn F_6,3,$C07
 dn F_6,4,$C07
 dn C_7,3,$C0F
 dn C_7,4,$C0F
 dn G#6,3,$C07
 dn G#6,4,$C07
 dn F_6,3,$C0F
 dn F_6,4,$C0F
 dn C_7,3,$C07
 dn C_7,4,$C07
 dn G#6,3,$C0F
 dn G#6,4,$C0F
 dn F_6,3,$C07
 dn F_6,4,$C07
 dn B_6,3,$C0F
 dn B_6,4,$C0F
 dn G#6,3,$C07
 dn G#6,4,$C07
 dn D_6,3,$C0F
 dn D_6,4,$C0F
 dn B_6,3,$C07
 dn B_6,4,$C07
 dn G_6,3,$C0F
 dn G_6,4,$C0F
 dn D_6,3,$C07
 dn D_6,4,$C07
 dn B_6,3,$C0F
 dn B_6,4,$C0F
 dn G_6,3,$C07
 dn G_6,4,$C07
 dn D_6,3,$C0F
 dn D_6,4,$C0F
 dn B_6,3,$C07
 dn B_6,4,$C07
 dn G_6,3,$C0F
 dn G_6,4,$C0F
 dn D_6,3,$C07
 dn D_6,4,$C07
 dn B_6,3,$C0F
 dn B_6,4,$C0F
 dn G_6,3,$C07
 dn G_6,4,$C07
 dn D_6,3,$C07
 dn D_6,4,$C07
 dn B_6,3,$C03
 dn B_6,4,$C03

P19:
 dn F_5,4,$000
 dn F_3,5,$000
 dn ___,0,$000
 dn ___,0,$000
 dn F_3,5,$000
 dn ___,0,$000
 dn ___,0,$000
 dn ___,0,$000
 dn B_5,6,$000
 dn F_3,5,$000
 dn ___,0,$000
 dn ___,0,$000
 dn F_5,4,$000
 dn F_3,5,$000
 dn ___,0,$000
 dn ___,0,$000
 dn F_3,5,$000
 dn ___,0,$000
 dn ___,0,$000
 dn ___,0,$000
 dn F_5,4,$000
 dn C_4,5,$000
 dn ___,0,$000
 dn ___,0,$000
 dn B_5,6,$000
 dn D#4,5,$000
 dn ___,0,$000
 dn ___,0,$000
 dn F_4,5,$000
 dn ___,0,$000
 dn ___,0,$000
 dn ___,0,$000
 dn D_5,4,$000
 dn D_3,5,$000
 dn ___,0,$000
 dn ___,0,$000
 dn D_3,5,$000
 dn ___,0,$000
 dn ___,0,$000
 dn ___,0,$000
 dn G#5,6,$000
 dn D_3,5,$000
 dn ___,0,$000
 dn ___,0,$000
 dn D_5,4,$000
 dn D_3,5,$000
 dn ___,0,$000
 dn ___,0,$000
 dn D_3,5,$000
 dn ___,0,$000
 dn ___,0,$000
 dn ___,0,$000
 dn D_5,4,$000
 dn G_3,5,$000
 dn ___,0,$000
 dn ___,0,$000
 dn G#5,6,$000
 dn B_3,5,$000
 dn ___,0,$000
 dn ___,0,$000
 dn D_4,5,$000
 dn ___,0,$000
 dn ___,0,$000
 dn ___,0,$000

P20:
 dn F_5,3,$900
 dn G#5,0,$000
 dn C_6,0,$940
 dn F_5,0,$000
 dn G#5,0,$980
 dn C_6,0,$000
 dn F_5,0,$9C0
 dn G#5,0,$000
 dn C_6,3,$900
 dn F_5,0,$000
 dn G#5,0,$940
 dn C_6,0,$000
 dn F_5,0,$980
 dn G#5,0,$000
 dn C_6,0,$9C0
 dn F_5,0,$000
 dn G#5,3,$900
 dn C_6,0,$000
 dn F_5,0,$940
 dn G#5,0,$000
 dn C_6,0,$980
 dn F_5,0,$000
 dn G#5,0,$9C0
 dn C_6,0,$000
 dn F_5,3,$900
 dn G#5,0,$000
 dn C_6,0,$940
 dn F_5,0,$000
 dn G#5,0,$980
 dn C_6,0,$000
 dn F_5,0,$9C0
 dn G#5,0,$000
 dn B_5,3,$C03
 dn D_5,0,$000
 dn G_5,0,$940
 dn B_5,0,$000
 dn D_5,0,$980
 dn G_5,0,$000
 dn B_5,0,$9C0
 dn D_5,0,$000
 dn G_5,3,$C02
 dn B_5,0,$000
 dn D_5,0,$940
 dn G_5,0,$000
 dn B_5,0,$980
 dn D_5,0,$000
 dn G_5,0,$9C0
 dn B_5,0,$000
 dn D_5,3,$C01
 dn G_5,0,$000
 dn B_5,0,$940
 dn D_5,0,$000
 dn G_5,0,$980
 dn B_5,0,$000
 dn D_5,0,$9C0
 dn G_5,0,$000
 dn B_5,3,$C01
 dn D_5,0,$000
 dn G_5,0,$940
 dn B_5,0,$000
 dn D_5,0,$980
 dn G_5,0,$000
 dn B_5,0,$9C0
 dn D_5,0,$000

P21:
 dn C_6,4,$C0F
 dn ___,0,$000
 dn C_6,5,$C0F
 dn ___,0,$000
 dn C_6,6,$C0F
 dn ___,0,$000
 dn C_6,7,$C07
 dn ___,0,$000
 dn C_6,6,$C07
 dn ___,0,$000
 dn C_6,5,$C03
 dn ___,0,$000
 dn D_6,4,$C0F
 dn ___,0,$000
 dn D_6,5,$C0F
 dn ___,0,$000
 dn D_6,6,$C0F
 dn ___,0,$000
 dn D_6,7,$C07
 dn ___,0,$000
 dn D_6,6,$C07
 dn ___,0,$000
 dn D_6,5,$C03
 dn ___,0,$000
 dn D_6,4,$C0F
 dn D#6,0,$304
 dn D#6,5,$C0F
 dn ___,0,$000
 dn D#6,6,$C0F
 dn ___,0,$000
 dn D#6,7,$C07
 dn ___,0,$000
 dn D#6,6,$C07
 dn ___,0,$000
 dn D#6,5,$C03
 dn ___,0,$000
 dn D#6,4,$C03
 dn ___,0,$000
 dn D#6,5,$C03
 dn ___,0,$000
 dn D_6,6,$C0F
 dn ___,0,$000
 dn D_6,7,$C0F
 dn ___,0,$000
 dn D_6,6,$C0F
 dn ___,0,$000
 dn D_6,5,$C07
 dn ___,0,$000
 dn C_6,4,$C0F
 dn ___,0,$000
 dn C_6,5,$C0F
 dn ___,0,$000
 dn C_6,6,$C0F
 dn ___,0,$000
 dn C_6,7,$C07
 dn ___,0,$000
 dn A#5,6,$C0F
 dn ___,0,$000
 dn A#5,5,$C0F
 dn ___,0,$000
 dn A#5,4,$C0F
 dn ___,0,$000
 dn A#5,5,$C07
 dn ___,0,$000

P22:
 dn G_5,4,$C0F
 dn ___,0,$000
 dn G_5,5,$C0F
 dn ___,0,$000
 dn G_5,6,$C0F
 dn ___,0,$000
 dn G_5,7,$C07
 dn ___,0,$000
 dn A#5,6,$C0F
 dn ___,0,$000
 dn A#5,5,$C07
 dn ___,0,$000
 dn F_5,4,$C0F
 dn ___,0,$000
 dn F_5,5,$C0F
 dn ___,0,$000
 dn F_5,6,$C0F
 dn ___,0,$000
 dn F_5,7,$C07
 dn ___,0,$000
 dn A#5,6,$C0F
 dn ___,0,$000
 dn A#5,5,$C07
 dn ___,0,$000
 dn F_5,4,$C0F
 dn G_5,0,$304
 dn G_5,5,$C0F
 dn ___,0,$000
 dn G_5,6,$C0F
 dn ___,0,$000
 dn G_5,7,$C0F
 dn ___,0,$000
 dn G_5,6,$C0F
 dn ___,0,$000
 dn G_5,5,$C0F
 dn ___,0,$000
 dn G_5,4,$C07
 dn ___,0,$000
 dn G_5,5,$C07
 dn ___,0,$000
 dn G_5,6,$C07
 dn ___,0,$000
 dn G_5,7,$C07
 dn ___,0,$000
 dn G_5,6,$C03
 dn ___,0,$000
 dn G_5,5,$C03
 dn ___,0,$000
 dn G_5,4,$C03
 dn ___,0,$000
 dn G_5,5,$C03
 dn ___,0,$000
 dn G_5,6,$C03
 dn ___,0,$000
 dn G_5,7,$C03
 dn ___,0,$000
 dn C_6,6,$C0F
 dn ___,0,$000
 dn C_6,5,$C07
 dn ___,0,$000
 dn D_6,4,$C0F
 dn ___,0,$000
 dn D_6,5,$C07
 dn ___,0,$000

P23:
 dn D#6,4,$C0F
 dn ___,0,$000
 dn D#6,5,$C0F
 dn ___,0,$000
 dn D#6,6,$C0F
 dn ___,0,$000
 dn D#6,7,$C07
 dn ___,0,$000
 dn D#6,6,$C07
 dn ___,0,$000
 dn D#6,5,$C03
 dn ___,0,$000
 dn F_6,4,$C0F
 dn ___,0,$000
 dn F_6,5,$C0F
 dn ___,0,$000
 dn F_6,6,$C0F
 dn ___,0,$000
 dn F_6,7,$C07
 dn ___,0,$000
 dn F_6,6,$C07
 dn ___,0,$000
 dn F_6,5,$C03
 dn ___,0,$000
 dn F_6,4,$C0F
 dn G_6,0,$304
 dn G_6,5,$C0F
 dn ___,0,$000
 dn G_6,6,$C0F
 dn ___,0,$000
 dn G_6,7,$C0F
 dn ___,0,$000
 dn G_6,6,$C0F
 dn ___,0,$000
 dn G_6,5,$C07
 dn ___,0,$000
 dn G_6,4,$C03
 dn ___,0,$000
 dn G_6,5,$C03
 dn ___,0,$000
 dn A#6,6,$C0F
 dn ___,0,$000
 dn A#6,7,$C0F
 dn ___,0,$000
 dn A#6,6,$C0F
 dn ___,0,$000
 dn A#6,5,$C07
 dn ___,0,$000
 dn F_6,4,$C0F
 dn ___,0,$000
 dn F_6,5,$C0F
 dn ___,0,$000
 dn F_6,6,$C0F
 dn ___,0,$000
 dn F_6,7,$C07
 dn ___,0,$000
 dn D#6,6,$C0F
 dn ___,0,$000
 dn D#6,5,$C0F
 dn ___,0,$000
 dn D#6,4,$C0F
 dn ___,0,$000
 dn D#6,5,$C07
 dn ___,0,$000

P24:
 dn F_6,4,$C0F
 dn ___,0,$000
 dn F_6,5,$C0F
 dn ___,0,$000
 dn F_6,6,$C0F
 dn ___,0,$000
 dn F_6,7,$C0F
 dn ___,0,$000
 dn F_6,6,$C07
 dn ___,0,$000
 dn F_6,5,$C07
 dn ___,0,$000
 dn F_6,4,$C07
 dn ___,0,$000
 dn F_6,5,$C07
 dn ___,0,$000
 dn F_6,6,$C07
 dn ___,0,$000
 dn F_6,7,$C07
 dn ___,0,$000
 dn F_6,6,$C03
 dn ___,0,$000
 dn F_6,5,$C03
 dn ___,0,$000
 dn F_6,4,$C03
 dn ___,0,$000
 dn F_6,5,$C03
 dn ___,0,$000
 dn F_6,6,$C03
 dn ___,0,$000
 dn F_6,7,$C03
 dn ___,0,$000
 dn F_6,6,$C0F
 dn G_6,0,$308
 dn G_6,5,$C0F
 dn ___,0,$000
 dn G_6,4,$C0F
 dn ___,0,$000
 dn G_6,5,$C0F
 dn ___,0,$000
 dn G_6,6,$C0F
 dn ___,0,$000
 dn G_6,7,$C07
 dn ___,0,$000
 dn G_6,6,$C07
 dn ___,0,$000
 dn G_6,5,$C03
 dn ___,0,$000
 dn D_6,4,$C0F
 dn ___,0,$000
 dn D_6,5,$C0F
 dn ___,0,$000
 dn D_6,6,$C0F
 dn ___,0,$000
 dn D_6,7,$C0F
 dn ___,0,$000
 dn D_6,6,$C0F
 dn ___,0,$000
 dn D_6,5,$C07
 dn ___,0,$000
 dn D_6,4,$C07
 dn ___,0,$000
 dn D_6,5,$C03
 dn ___,0,$000

P25:
 dn C_6,4,$C0F
 dn ___,0,$000
 dn C_6,5,$C0F
 dn ___,0,$000
 dn C_6,6,$C0F
 dn ___,0,$000
 dn C_6,7,$C07
 dn ___,0,$000
 dn C_6,6,$C07
 dn ___,0,$000
 dn C_6,5,$C03
 dn ___,0,$000
 dn D_6,4,$C0F
 dn ___,0,$000
 dn D_6,5,$C0F
 dn ___,0,$000
 dn D_6,6,$C0F
 dn ___,0,$000
 dn D_6,7,$C07
 dn ___,0,$000
 dn D_6,6,$C07
 dn ___,0,$000
 dn D_6,5,$C03
 dn ___,0,$000
 dn D_6,4,$C0F
 dn D#6,0,$304
 dn D#6,5,$C0F
 dn ___,0,$000
 dn D#6,6,$C0F
 dn ___,0,$000
 dn D#6,7,$C07
 dn ___,0,$000
 dn D#6,6,$C07
 dn ___,0,$000
 dn D#6,5,$C03
 dn ___,0,$000
 dn F_6,4,$C0F
 dn ___,0,$000
 dn F_6,5,$C0F
 dn ___,0,$000
 dn F_6,6,$C0F
 dn ___,0,$000
 dn F_6,7,$C07
 dn ___,0,$000
 dn F_6,6,$C07
 dn ___,0,$000
 dn F_6,5,$C03
 dn ___,0,$000
 dn G_6,4,$C0F
 dn ___,0,$000
 dn G_6,5,$C0F
 dn ___,0,$000
 dn G_6,6,$C0F
 dn ___,0,$000
 dn G_6,7,$C07
 dn ___,0,$000
 dn A#6,6,$C0F
 dn ___,0,$000
 dn A#6,5,$C0F
 dn ___,0,$000
 dn A#6,4,$C0F
 dn ___,0,$000
 dn A#6,5,$C07
 dn ___,0,$000

P26:
 dn C_7,4,$C0F
 dn ___,0,$000
 dn C_7,5,$C0F
 dn ___,0,$000
 dn C_7,6,$C0F
 dn ___,0,$000
 dn C_7,7,$C07
 dn ___,0,$000
 dn C_7,6,$C07
 dn ___,0,$000
 dn C_7,5,$C03
 dn ___,0,$000
 dn A#6,4,$C0F
 dn ___,0,$000
 dn A#6,5,$C0F
 dn ___,0,$000
 dn A#6,6,$C0F
 dn ___,0,$000
 dn A#6,7,$C07
 dn ___,0,$000
 dn A#6,6,$C07
 dn ___,0,$000
 dn A#6,5,$C03
 dn ___,0,$000
 dn A#6,4,$C0F
 dn C_7,0,$304
 dn C_7,5,$C0F
 dn ___,0,$000
 dn C_7,6,$C0F
 dn ___,0,$000
 dn C_7,7,$C0F
 dn ___,0,$000
 dn C_7,6,$C0F
 dn ___,0,$000
 dn C_7,5,$C0F
 dn ___,0,$000
 dn C_7,4,$C07
 dn ___,0,$000
 dn C_7,5,$C07
 dn ___,0,$000
 dn C_7,6,$C07
 dn ___,0,$000
 dn C_7,7,$C07
 dn ___,0,$000
 dn C_7,6,$C03
 dn ___,0,$000
 dn C_7,5,$C03
 dn ___,0,$000
 dn C_7,4,$C03
 dn ___,0,$000
 dn C_7,5,$C03
 dn ___,0,$000
 dn C_7,6,$C03
 dn ___,0,$000
 dn C_7,7,$C03
 dn ___,0,$000
 dn C_7,6,$C0F
 dn ___,0,$000
 dn C_7,5,$C07
 dn ___,0,$000
 dn D_7,4,$C0F
 dn ___,0,$000
 dn D_7,5,$C07
 dn ___,0,$000

P27:
 dn D#7,4,$C0F
 dn ___,0,$000
 dn D#7,5,$C0F
 dn ___,0,$000
 dn D#7,6,$C0F
 dn ___,0,$000
 dn D#7,7,$C07
 dn ___,0,$000
 dn D#7,6,$C07
 dn ___,0,$000
 dn D#7,5,$C03
 dn ___,0,$000
 dn D_7,4,$C0F
 dn ___,0,$000
 dn D_7,5,$C0F
 dn ___,0,$000
 dn D_7,6,$C0F
 dn ___,0,$000
 dn D_7,7,$C07
 dn ___,0,$000
 dn D_7,6,$C07
 dn ___,0,$000
 dn D_7,5,$C03
 dn ___,0,$000
 dn D_7,4,$C0F
 dn D#7,0,$304
 dn D#7,5,$C0F
 dn ___,0,$000
 dn D#7,6,$C0F
 dn ___,0,$000
 dn D#7,7,$C0F
 dn ___,0,$000
 dn D#7,6,$C0F
 dn ___,0,$000
 dn D#7,5,$C0F
 dn ___,0,$000
 dn D#7,4,$C07
 dn ___,0,$000
 dn D#7,5,$C03
 dn ___,0,$000
 dn F_7,6,$C0F
 dn ___,0,$000
 dn F_7,7,$C0F
 dn ___,0,$000
 dn F_7,6,$C0F
 dn ___,0,$000
 dn F_7,5,$C07
 dn ___,0,$000
 dn G_7,4,$C0F
 dn ___,0,$000
 dn G_7,5,$C0F
 dn ___,0,$000
 dn G_7,6,$C0F
 dn ___,0,$000
 dn G_7,7,$C07
 dn ___,0,$000
 dn G#7,6,$C0F
 dn ___,0,$000
 dn G#7,5,$C0F
 dn ___,0,$000
 dn G#7,4,$C0F
 dn ___,0,$000
 dn G#7,5,$C07
 dn ___,0,$000

P28:
 dn G_7,4,$C0F
 dn ___,0,$000
 dn G#7,5,$C0F
 dn ___,0,$000
 dn G_7,6,$C0F
 dn ___,0,$000
 dn G#7,7,$C0F
 dn ___,0,$000
 dn G_7,6,$C07
 dn ___,0,$000
 dn G#7,5,$C07
 dn ___,0,$000
 dn G_7,4,$C07
 dn ___,0,$000
 dn G#7,5,$C07
 dn ___,0,$000
 dn G_7,6,$C03
 dn ___,0,$000
 dn G#7,7,$C03
 dn ___,0,$000
 dn G_7,6,$C03
 dn ___,0,$000
 dn G#7,5,$C03
 dn ___,0,$000
 dn G_7,4,$C03
 dn ___,0,$000
 dn G#7,5,$C03
 dn ___,0,$000
 dn G_7,6,$C03
 dn ___,0,$000
 dn G#7,7,$C03
 dn ___,0,$000
 dn G_7,6,$C03
 dn ___,0,$000
 dn ___,0,$E00
 dn ___,0,$000
 dn ___,0,$000
 dn ___,0,$000
 dn ___,0,$000
 dn ___,0,$000
 dn ___,0,$000
 dn ___,0,$000
 dn ___,0,$000
 dn ___,0,$000
 dn ___,0,$000
 dn ___,0,$000
 dn ___,0,$000
 dn ___,0,$000
 dn ___,0,$000
 dn ___,0,$000
 dn ___,0,$000
 dn ___,0,$000
 dn ___,0,$000
 dn ___,0,$000
 dn ___,0,$000
 dn ___,0,$000
 dn ___,0,$000
 dn ___,0,$000
 dn ___,0,$000
 dn ___,0,$000
 dn ___,0,$000
 dn ___,0,$000
 dn ___,0,$000
 dn ___,0,$000

P29:
 dn C_5,4,$000
 dn C_3,5,$000
 dn ___,0,$000
 dn ___,0,$000
 dn C_3,5,$000
 dn ___,0,$000
 dn ___,0,$000
 dn ___,0,$000
 dn F#5,6,$000
 dn C_3,5,$000
 dn ___,0,$000
 dn ___,0,$000
 dn C_5,4,$000
 dn C_3,5,$000
 dn ___,0,$000
 dn ___,0,$000
 dn C_3,5,$000
 dn ___,0,$000
 dn ___,0,$000
 dn ___,0,$000
 dn C_5,4,$000
 dn G#3,5,$000
 dn ___,0,$000
 dn ___,0,$000
 dn F#5,6,$000
 dn C_4,5,$000
 dn ___,0,$000
 dn ___,0,$000
 dn D#4,5,$000
 dn ___,0,$000
 dn ___,0,$000
 dn ___,0,$000
 dn C_5,4,$000
 dn C_3,5,$000
 dn ___,0,$000
 dn ___,0,$000
 dn C_3,5,$000
 dn ___,0,$000
 dn ___,0,$000
 dn ___,0,$000
 dn F#5,6,$000
 dn C_3,5,$000
 dn ___,0,$000
 dn ___,0,$000
 dn C_5,4,$000
 dn C_3,5,$000
 dn ___,0,$000
 dn ___,0,$000
 dn C_3,5,$000
 dn ___,0,$000
 dn ___,0,$000
 dn ___,0,$000
 dn C_5,4,$000
 dn G#3,5,$000
 dn ___,0,$000
 dn ___,0,$000
 dn F#5,6,$000
 dn C_4,5,$000
 dn ___,0,$000
 dn ___,0,$000
 dn D#4,5,$000
 dn ___,0,$000
 dn ___,0,$000
 dn ___,0,$000

P30:
 dn C_5,3,$900
 dn D#5,0,$000
 dn G#5,0,$940
 dn C_5,0,$000
 dn D#5,0,$980
 dn G#5,0,$000
 dn C_5,0,$9C0
 dn D#5,0,$000
 dn G#5,3,$900
 dn C_5,0,$000
 dn D#5,0,$940
 dn G#5,0,$000
 dn C_5,0,$980
 dn D#5,0,$000
 dn G#5,0,$9C0
 dn C_5,0,$000
 dn D#5,3,$900
 dn G#5,0,$000
 dn C_5,0,$940
 dn D#5,0,$000
 dn G#5,0,$980
 dn C_5,0,$000
 dn D#5,0,$9C0
 dn G#5,0,$000
 dn C_5,3,$900
 dn D#5,0,$000
 dn G#5,0,$940
 dn C_5,0,$000
 dn D#5,0,$980
 dn G#5,0,$000
 dn C_5,0,$9C0
 dn D#5,0,$000
 dn G#5,3,$900
 dn C_5,0,$000
 dn D#5,0,$940
 dn G#5,0,$000
 dn C_5,0,$980
 dn D#5,0,$000
 dn G#5,0,$9C0
 dn C_5,0,$000
 dn D#5,3,$900
 dn G#5,0,$000
 dn C_5,0,$940
 dn D#5,0,$000
 dn G#5,0,$980
 dn C_5,0,$000
 dn D#5,0,$9C0
 dn G#5,0,$000
 dn C_5,3,$900
 dn D#5,0,$000
 dn G#5,0,$940
 dn C_5,0,$000
 dn D#5,0,$980
 dn G#5,0,$000
 dn C_5,0,$9C0
 dn D#5,0,$000
 dn G#5,3,$900
 dn C_5,0,$000
 dn D#5,0,$940
 dn G#5,0,$000
 dn C_5,0,$980
 dn D#5,0,$000
 dn G#5,0,$9C0
 dn C_5,0,$000

P31:
 dn G#6,4,$000
 dn C_6,4,$000
 dn D#6,5,$000
 dn G#6,5,$000
 dn C_6,6,$000
 dn D#6,6,$000
 dn G#6,7,$000
 dn C_6,7,$000
 dn D#6,6,$000
 dn G#6,6,$000
 dn C_6,5,$000
 dn D#6,5,$000
 dn G#6,4,$000
 dn C_6,4,$000
 dn D#6,5,$000
 dn G#6,5,$000
 dn C_6,6,$000
 dn D#6,6,$000
 dn G#6,7,$000
 dn C_6,7,$000
 dn D#6,6,$000
 dn G#6,6,$000
 dn C_6,5,$000
 dn D#6,5,$000
 dn G#6,4,$000
 dn C_6,4,$000
 dn D#6,5,$000
 dn G#6,5,$000
 dn C_6,6,$000
 dn D#6,6,$000
 dn G#6,7,$000
 dn C_6,7,$000
 dn D#6,6,$000
 dn G#6,6,$000
 dn C_6,5,$000
 dn D#6,5,$000
 dn G#6,4,$000
 dn C_6,4,$000
 dn D#6,5,$000
 dn G#6,5,$000
 dn C_6,6,$000
 dn D#6,6,$000
 dn G#6,7,$000
 dn C_6,7,$000
 dn D#6,6,$000
 dn G#6,6,$000
 dn C_6,5,$000
 dn D#6,5,$000
 dn G#6,4,$000
 dn C_6,4,$000
 dn D#6,5,$000
 dn G#6,5,$000
 dn C_6,6,$000
 dn D#6,6,$000
 dn G#6,7,$000
 dn C_6,7,$000
 dn D#6,6,$000
 dn G#6,6,$000
 dn C_6,5,$000
 dn D#6,5,$000
 dn G#6,4,$000
 dn C_6,4,$000
 dn D#6,5,$000
 dn G#6,5,$000

P32:
 dn C_5,4,$000
 dn D_3,5,$000
 dn ___,0,$000
 dn ___,0,$000
 dn D_3,5,$000
 dn ___,0,$000
 dn ___,0,$000
 dn ___,0,$000
 dn F#5,6,$000
 dn D_3,5,$000
 dn ___,0,$000
 dn ___,0,$000
 dn C_5,4,$000
 dn D_3,5,$000
 dn ___,0,$000
 dn ___,0,$000
 dn D_3,5,$000
 dn ___,0,$000
 dn ___,0,$000
 dn ___,0,$000
 dn C_5,4,$000
 dn A#3,5,$000
 dn ___,0,$000
 dn ___,0,$000
 dn F#5,6,$000
 dn D_4,5,$000
 dn ___,0,$000
 dn ___,0,$000
 dn F_4,5,$000
 dn ___,0,$000
 dn ___,0,$000
 dn ___,0,$000
 dn C_5,4,$000
 dn D_3,5,$000
 dn ___,0,$000
 dn ___,0,$000
 dn D_3,5,$000
 dn ___,0,$000
 dn ___,0,$000
 dn ___,0,$000
 dn F#5,6,$000
 dn D_3,5,$000
 dn ___,0,$000
 dn ___,0,$000
 dn C_5,4,$000
 dn D_3,5,$000
 dn ___,0,$000
 dn ___,0,$000
 dn D_3,5,$000
 dn ___,0,$000
 dn ___,0,$000
 dn ___,0,$000
 dn C_5,4,$000
 dn A#3,5,$000
 dn ___,0,$000
 dn ___,0,$000
 dn F#5,6,$000
 dn D_4,5,$000
 dn ___,0,$000
 dn ___,0,$000
 dn F_4,5,$000
 dn ___,0,$000
 dn ___,0,$000
 dn ___,0,$000

P33:
 dn D_5,3,$900
 dn F_5,0,$000
 dn A#5,0,$940
 dn D_5,0,$000
 dn F_5,0,$980
 dn A#5,0,$000
 dn D_5,0,$9C0
 dn F_5,0,$000
 dn A#5,3,$900
 dn D_5,0,$000
 dn F_5,0,$940
 dn A#5,0,$000
 dn D_5,0,$980
 dn F_5,0,$000
 dn A#5,0,$9C0
 dn D_5,0,$000
 dn F_5,3,$900
 dn A#5,0,$000
 dn D_5,0,$940
 dn F_5,0,$000
 dn A#5,0,$980
 dn D_5,0,$000
 dn F_5,0,$9C0
 dn A#5,0,$000
 dn D_5,3,$900
 dn F_5,0,$000
 dn A#5,0,$940
 dn D_5,0,$000
 dn F_5,0,$980
 dn A#5,0,$000
 dn D_5,0,$9C0
 dn F_5,0,$000
 dn A#5,3,$900
 dn D_5,0,$000
 dn F_5,0,$940
 dn A#5,0,$000
 dn D_5,0,$980
 dn F_5,0,$000
 dn A#5,0,$9C0
 dn D_5,0,$000
 dn F_5,3,$900
 dn A#5,0,$000
 dn D_5,0,$940
 dn F_5,0,$000
 dn A#5,0,$980
 dn D_5,0,$000
 dn F_5,0,$9C0
 dn A#5,0,$000
 dn D_5,3,$900
 dn F_5,0,$000
 dn A#5,0,$940
 dn D_5,0,$000
 dn F_5,0,$980
 dn A#5,0,$000
 dn D_5,0,$9C0
 dn F_5,0,$000
 dn A#5,3,$900
 dn D_5,0,$000
 dn F_5,0,$940
 dn A#5,0,$000
 dn D_5,0,$980
 dn F_5,0,$000
 dn A#5,0,$9C0
 dn D_5,0,$000

P34:
 dn A#6,4,$000
 dn D_6,4,$000
 dn F_6,5,$000
 dn A#6,5,$000
 dn D_6,6,$000
 dn F_6,6,$000
 dn A#6,7,$000
 dn D_6,7,$000
 dn F_6,6,$000
 dn A#6,6,$000
 dn D_6,5,$000
 dn F_6,5,$000
 dn A#6,4,$000
 dn D_6,4,$000
 dn F_6,5,$000
 dn A#6,5,$000
 dn D_6,6,$000
 dn F_6,6,$000
 dn A#6,7,$000
 dn D_6,7,$000
 dn F_6,6,$000
 dn A#6,6,$000
 dn D_6,5,$000
 dn F_6,5,$000
 dn A#6,4,$000
 dn D_6,4,$000
 dn F_6,5,$000
 dn A#6,5,$000
 dn D_6,6,$000
 dn F_6,6,$000
 dn A#6,7,$000
 dn D_6,7,$000
 dn F_6,6,$000
 dn A#6,6,$000
 dn D_6,5,$000
 dn F_6,5,$000
 dn A#6,4,$000
 dn D_6,4,$000
 dn F_6,5,$000
 dn A#6,5,$000
 dn D_6,6,$000
 dn F_6,6,$000
 dn A#6,7,$000
 dn D_6,7,$000
 dn F_6,6,$000
 dn A#6,6,$000
 dn D_6,5,$000
 dn F_6,5,$000
 dn A#6,4,$000
 dn D_6,4,$000
 dn F_6,5,$000
 dn A#6,5,$000
 dn D_6,6,$000
 dn F_6,6,$000
 dn A#6,7,$000
 dn D_6,7,$000
 dn F_6,6,$000
 dn A#6,6,$000
 dn D_6,5,$000
 dn F_6,5,$000
 dn A#6,4,$000
 dn D_6,4,$000
 dn F_6,5,$000
 dn A#6,5,$000

P35:
 dn D#5,3,$900
 dn G_5,0,$000
 dn C_6,0,$940
 dn D#5,0,$000
 dn G_5,0,$980
 dn C_6,0,$000
 dn D#5,0,$9C0
 dn G_5,0,$000
 dn C_6,3,$900
 dn D#5,0,$000
 dn G_5,0,$940
 dn C_6,0,$000
 dn D#5,0,$980
 dn G_5,0,$000
 dn C_6,0,$9C0
 dn D#5,0,$000
 dn G_5,3,$900
 dn C_6,0,$000
 dn D#5,0,$940
 dn G_5,0,$000
 dn C_6,0,$980
 dn D#5,0,$000
 dn G_5,0,$9C0
 dn C_6,0,$000
 dn D#5,3,$900
 dn G_5,0,$000
 dn C_6,0,$940
 dn D#5,0,$000
 dn G_5,0,$980
 dn C_6,0,$000
 dn D#5,0,$9C0
 dn G_5,0,$000
 dn C_6,3,$900
 dn D#5,0,$000
 dn G_5,0,$940
 dn C_6,0,$000
 dn D#5,0,$980
 dn G_5,0,$000
 dn C_6,0,$9C0
 dn D#5,0,$000
 dn G_5,3,$900
 dn C_6,0,$000
 dn D#5,0,$940
 dn G_5,0,$000
 dn C_6,0,$980
 dn D#5,0,$000
 dn G_5,0,$9C0
 dn C_6,0,$000
 dn D#5,3,$900
 dn G_5,0,$000
 dn C_6,0,$940
 dn D#5,0,$000
 dn G_5,0,$980
 dn C_6,0,$000
 dn D#5,0,$9C0
 dn G_5,0,$000
 dn C_6,3,$900
 dn D#5,0,$000
 dn G_5,0,$940
 dn C_6,0,$000
 dn D#5,0,$980
 dn G_5,0,$000
 dn C_6,0,$9C0
 dn D#5,0,$000

P36:
 dn C_7,4,$000
 dn D#6,4,$000
 dn G_6,5,$000
 dn C_7,5,$000
 dn D#6,6,$000
 dn G_6,6,$000
 dn C_7,7,$000
 dn D#6,7,$000
 dn G_6,6,$000
 dn C_7,6,$000
 dn D#6,5,$000
 dn G_6,5,$000
 dn C_7,4,$000
 dn D#6,4,$000
 dn G_6,5,$000
 dn C_7,5,$000
 dn D#6,6,$000
 dn G_6,6,$000
 dn C_7,7,$000
 dn D#6,7,$000
 dn G_6,6,$000
 dn C_7,6,$000
 dn D#6,5,$000
 dn G_6,5,$000
 dn C_7,4,$000
 dn D#6,4,$000
 dn G_6,5,$000
 dn C_7,5,$000
 dn D#6,6,$000
 dn G_6,6,$000
 dn C_7,7,$000
 dn D#6,7,$000
 dn G_6,6,$000
 dn C_7,6,$000
 dn D#6,5,$000
 dn G_6,5,$000
 dn C_7,4,$000
 dn D#6,4,$000
 dn G_6,5,$000
 dn C_7,5,$000
 dn D#6,6,$000
 dn G_6,6,$000
 dn C_7,7,$000
 dn D#6,7,$000
 dn G_6,6,$000
 dn C_7,6,$000
 dn D#6,5,$000
 dn G_6,5,$000
 dn C_7,4,$000
 dn D#6,4,$000
 dn G_6,5,$000
 dn C_7,5,$000
 dn D#6,6,$000
 dn G_6,6,$000
 dn C_7,7,$000
 dn D#6,7,$000
 dn G_6,6,$000
 dn C_7,6,$000
 dn D#6,5,$000
 dn G_6,5,$000
 dn C_7,4,$000
 dn D#6,4,$000
 dn G_6,5,$000
 dn C_7,5,$000

P37:
 dn G_6,4,$000
 dn C_6,4,$000
 dn D#6,5,$000
 dn G_6,5,$000
 dn C_6,6,$000
 dn D#6,6,$000
 dn G_6,7,$000
 dn C_6,7,$000
 dn D#6,6,$000
 dn G_6,6,$000
 dn C_6,5,$000
 dn D#6,5,$000
 dn G_6,4,$000
 dn C_6,4,$000
 dn D#6,5,$000
 dn G_6,5,$000
 dn C_6,6,$000
 dn D#6,6,$000
 dn G_6,7,$000
 dn C_6,7,$000
 dn D#6,6,$000
 dn G_6,6,$000
 dn C_6,5,$000
 dn D#6,5,$000
 dn G_6,4,$000
 dn C_6,4,$000
 dn D#6,5,$000
 dn G_6,5,$000
 dn C_6,6,$000
 dn D#6,6,$000
 dn G_6,7,$000
 dn C_6,7,$000
 dn D#6,6,$000
 dn G_6,6,$000
 dn C_6,5,$000
 dn D#6,5,$000
 dn G_6,4,$000
 dn C_6,4,$000
 dn D#6,5,$000
 dn G_6,5,$000
 dn C_6,6,$000
 dn D#6,6,$000
 dn G_6,7,$000
 dn C_6,7,$000
 dn D#6,6,$000
 dn G_6,6,$000
 dn C_6,5,$000
 dn D#6,5,$000
 dn G_6,4,$000
 dn C_6,4,$000
 dn D#6,5,$000
 dn G_6,5,$000
 dn C_6,6,$000
 dn D#6,6,$000
 dn G_6,7,$000
 dn C_6,7,$000
 dn D#6,6,$000
 dn G_6,6,$000
 dn C_6,5,$000
 dn D#6,5,$000
 dn G_6,4,$000
 dn C_6,4,$000
 dn D#6,5,$000
 dn G_6,5,$000

P38:
 dn G_4,3,$900
 dn C_5,0,$000
 dn D#5,0,$940
 dn G_4,0,$000
 dn C_5,0,$980
 dn D#5,0,$000
 dn G_4,0,$9C0
 dn C_5,0,$000
 dn D#5,3,$900
 dn G_4,0,$000
 dn C_5,0,$940
 dn D#5,0,$000
 dn G_4,0,$980
 dn C_5,0,$000
 dn D#5,0,$9C0
 dn G_4,0,$000
 dn C_5,3,$900
 dn D#5,0,$000
 dn G_4,0,$940
 dn C_5,0,$000
 dn D#5,0,$980
 dn G_4,0,$000
 dn C_5,0,$9C0
 dn D#5,0,$000
 dn G_4,3,$900
 dn C_5,0,$000
 dn D#5,0,$940
 dn G_4,0,$000
 dn C_5,0,$980
 dn D#5,0,$000
 dn G_4,0,$9C0
 dn C_5,0,$000
 dn D#5,3,$900
 dn G_4,0,$000
 dn C_5,0,$940
 dn D#5,0,$000
 dn G_4,0,$980
 dn C_5,0,$000
 dn D#5,0,$9C0
 dn G_4,0,$000
 dn C_5,3,$900
 dn D#5,0,$000
 dn G_4,0,$940
 dn C_5,0,$000
 dn D#5,0,$980
 dn G_4,0,$000
 dn C_5,0,$9C0
 dn D#5,0,$000
 dn G_4,3,$900
 dn C_5,0,$000
 dn D#5,0,$940
 dn G_4,0,$000
 dn C_5,0,$980
 dn D#5,0,$000
 dn G_4,0,$9C0
 dn C_5,0,$000
 dn D#5,3,$900
 dn G_4,0,$000
 dn C_5,0,$940
 dn D#5,0,$000
 dn G_4,0,$980
 dn C_5,0,$000
 dn D#5,0,$9C0
 dn G_4,0,$000

P39:
 dn D#6,4,$000
 dn G_5,4,$000
 dn C_6,5,$000
 dn D#6,5,$000
 dn G_5,6,$000
 dn C_6,6,$000
 dn D#6,7,$000
 dn G_5,7,$000
 dn C_6,6,$000
 dn D#6,6,$000
 dn G_5,5,$000
 dn C_6,5,$000
 dn D#6,4,$000
 dn G_5,4,$000
 dn C_6,5,$000
 dn D#6,5,$000
 dn G_5,6,$000
 dn C_6,6,$000
 dn D#6,7,$000
 dn G_5,7,$000
 dn C_6,6,$000
 dn D#6,6,$000
 dn G_5,5,$000
 dn C_6,5,$000
 dn D#6,4,$000
 dn G_5,4,$000
 dn C_6,5,$000
 dn D#6,5,$000
 dn G_5,6,$000
 dn C_6,6,$000
 dn D#6,7,$000
 dn G_5,7,$000
 dn C_6,6,$000
 dn D#6,6,$000
 dn G_5,5,$000
 dn C_6,5,$000
 dn D#6,4,$000
 dn G_5,4,$000
 dn C_6,5,$000
 dn D#6,5,$000
 dn G_5,6,$000
 dn C_6,6,$000
 dn D#6,7,$000
 dn G_5,7,$000
 dn C_6,6,$000
 dn D#6,6,$000
 dn G_5,5,$000
 dn C_6,5,$000
 dn D#6,4,$000
 dn G_5,4,$000
 dn C_6,5,$000
 dn D#6,5,$000
 dn G_5,6,$000
 dn C_6,6,$000
 dn D#6,7,$000
 dn G_5,7,$000
 dn C_6,6,$000
 dn D#6,6,$000
 dn G_5,5,$000
 dn C_6,5,$000
 dn D#6,4,$000
 dn G_5,4,$000
 dn C_6,5,$000
 dn D#6,5,$B0B

itNoiseSP1:
 dn ___,0,$000
 dn 22,2,$000
 dn 5,0,$000
 dn 5,0,$000
 dn 5,0,$000
 dn 5,0,$000
 dn 5,0,$000
 dn ___,0,$000
 dn ___,0,$000
 dn ___,0,$000
 dn ___,0,$000
 dn ___,0,$000
 dn ___,0,$000
 dn ___,0,$000
 dn ___,0,$000
 dn ___,0,$000
 dn ___,0,$000
 dn ___,0,$000
 dn ___,0,$000
 dn ___,0,$000
 dn ___,0,$000
 dn ___,0,$000
 dn ___,0,$000
 dn ___,0,$000
 dn ___,0,$000
 dn ___,0,$000
 dn ___,0,$000
 dn ___,0,$000
 dn ___,0,$000
 dn ___,0,$000
 dn ___,0,$000
 dn ___,1,$000

itNoiseSP2:
 dn ___,0,$000
 dn 58,2,$000
 dn 5,0,$000
 dn 5,0,$000
 dn 5,0,$000
 dn 5,0,$000
 dn 5,0,$000
 dn ___,0,$000
 dn ___,0,$000
 dn ___,0,$000
 dn ___,0,$000
 dn ___,0,$000
 dn ___,0,$000
 dn ___,0,$000
 dn ___,0,$000
 dn ___,0,$000
 dn ___,0,$000
 dn ___,0,$000
 dn ___,0,$000
 dn ___,0,$000
 dn ___,0,$000
 dn ___,0,$000
 dn ___,0,$000
 dn ___,0,$000
 dn ___,0,$000
 dn ___,0,$000
 dn ___,0,$000
 dn ___,0,$000
 dn ___,0,$000
 dn ___,0,$000
 dn ___,0,$000
 dn ___,1,$000

itNoiseSP3:
 dn ___,0,$000
 dn 26,2,$000
 dn 44,0,$000
 dn 44,0,$000
 dn 44,0,$000
 dn 44,0,$000
 dn 44,0,$000
 dn ___,0,$000
 dn ___,0,$000
 dn ___,0,$000
 dn ___,0,$000
 dn ___,0,$000
 dn ___,0,$000
 dn ___,0,$000
 dn ___,0,$000
 dn ___,0,$000
 dn ___,0,$000
 dn ___,0,$000
 dn ___,0,$000
 dn ___,0,$000
 dn ___,0,$000
 dn ___,0,$000
 dn ___,0,$000
 dn ___,0,$000
 dn ___,0,$000
 dn ___,0,$000
 dn ___,0,$000
 dn ___,0,$000
 dn ___,0,$000
 dn ___,0,$000
 dn ___,0,$000
 dn ___,1,$000

itNoiseSP4:
 dn ___,0,$000
 dn 36,2,$000
 dn 36,0,$000
 dn 36,0,$000
 dn 36,0,$000
 dn 36,0,$000
 dn 36,0,$000
 dn ___,0,$000
 dn ___,0,$000
 dn ___,0,$000
 dn ___,0,$000
 dn ___,0,$000
 dn ___,0,$000
 dn ___,0,$000
 dn ___,0,$000
 dn ___,0,$000
 dn ___,0,$000
 dn ___,0,$000
 dn ___,0,$000
 dn ___,0,$000
 dn ___,0,$000
 dn ___,0,$000
 dn ___,0,$000
 dn ___,0,$000
 dn ___,0,$000
 dn ___,0,$000
 dn ___,0,$000
 dn ___,0,$000
 dn ___,0,$000
 dn ___,0,$000
 dn ___,0,$000
 dn ___,1,$000

itNoiseSP5:
 dn ___,0,$000
 dn 36,2,$000
 dn 36,0,$000
 dn 36,0,$000
 dn 36,0,$000
 dn 36,0,$000
 dn 36,0,$000
 dn ___,0,$000
 dn ___,0,$000
 dn ___,0,$000
 dn ___,0,$000
 dn ___,0,$000
 dn ___,0,$000
 dn ___,0,$000
 dn ___,0,$000
 dn ___,0,$000
 dn ___,0,$000
 dn ___,0,$000
 dn ___,0,$000
 dn ___,0,$000
 dn ___,0,$000
 dn ___,0,$000
 dn ___,0,$000
 dn ___,0,$000
 dn ___,0,$000
 dn ___,0,$000
 dn ___,0,$000
 dn ___,0,$000
 dn ___,0,$000
 dn ___,0,$000
 dn ___,0,$000
 dn ___,1,$000

itNoiseSP6:
 dn ___,0,$000
 dn 36,2,$000
 dn 36,0,$000
 dn 36,0,$000
 dn 36,0,$000
 dn 36,0,$000
 dn 36,0,$000
 dn ___,0,$000
 dn ___,0,$000
 dn ___,0,$000
 dn ___,0,$000
 dn ___,0,$000
 dn ___,0,$000
 dn ___,0,$000
 dn ___,0,$000
 dn ___,0,$000
 dn ___,0,$000
 dn ___,0,$000
 dn ___,0,$000
 dn ___,0,$000
 dn ___,0,$000
 dn ___,0,$000
 dn ___,0,$000
 dn ___,0,$000
 dn ___,0,$000
 dn ___,0,$000
 dn ___,0,$000
 dn ___,0,$000
 dn ___,0,$000
 dn ___,0,$000
 dn ___,0,$000
 dn ___,1,$000

itNoiseSP7:
 dn ___,0,$000
 dn 36,2,$000
 dn 36,0,$000
 dn 36,0,$000
 dn 36,0,$000
 dn 36,0,$000
 dn 36,0,$000
 dn ___,0,$000
 dn ___,0,$000
 dn ___,0,$000
 dn ___,0,$000
 dn ___,0,$000
 dn ___,0,$000
 dn ___,0,$000
 dn ___,0,$000
 dn ___,0,$000
 dn ___,0,$000
 dn ___,0,$000
 dn ___,0,$000
 dn ___,0,$000
 dn ___,0,$000
 dn ___,0,$000
 dn ___,0,$000
 dn ___,0,$000
 dn ___,0,$000
 dn ___,0,$000
 dn ___,0,$000
 dn ___,0,$000
 dn ___,0,$000
 dn ___,0,$000
 dn ___,0,$000
 dn ___,1,$000

itNoiseSP8:
 dn ___,0,$000
 dn 36,2,$000
 dn 36,0,$000
 dn 36,0,$000
 dn 36,0,$000
 dn 36,0,$000
 dn 36,0,$000
 dn ___,0,$000
 dn ___,0,$000
 dn ___,0,$000
 dn ___,0,$000
 dn ___,0,$000
 dn ___,0,$000
 dn ___,0,$000
 dn ___,0,$000
 dn ___,0,$000
 dn ___,0,$000
 dn ___,0,$000
 dn ___,0,$000
 dn ___,0,$000
 dn ___,0,$000
 dn ___,0,$000
 dn ___,0,$000
 dn ___,0,$000
 dn ___,0,$000
 dn ___,0,$000
 dn ___,0,$000
 dn ___,0,$000
 dn ___,0,$000
 dn ___,0,$000
 dn ___,0,$000
 dn ___,1,$000

itNoiseSP9:
 dn ___,0,$000
 dn 36,2,$000
 dn 36,0,$000
 dn 36,0,$000
 dn 36,0,$000
 dn 36,0,$000
 dn 36,0,$000
 dn ___,0,$000
 dn ___,0,$000
 dn ___,0,$000
 dn ___,0,$000
 dn ___,0,$000
 dn ___,0,$000
 dn ___,0,$000
 dn ___,0,$000
 dn ___,0,$000
 dn ___,0,$000
 dn ___,0,$000
 dn ___,0,$000
 dn ___,0,$000
 dn ___,0,$000
 dn ___,0,$000
 dn ___,0,$000
 dn ___,0,$000
 dn ___,0,$000
 dn ___,0,$000
 dn ___,0,$000
 dn ___,0,$000
 dn ___,0,$000
 dn ___,0,$000
 dn ___,0,$000
 dn ___,1,$000

itNoiseSP10:
 dn ___,0,$000
 dn 36,2,$000
 dn 36,0,$000
 dn 36,0,$000
 dn 36,0,$000
 dn 36,0,$000
 dn 36,0,$000
 dn ___,0,$000
 dn ___,0,$000
 dn ___,0,$000
 dn ___,0,$000
 dn ___,0,$000
 dn ___,0,$000
 dn ___,0,$000
 dn ___,0,$000
 dn ___,0,$000
 dn ___,0,$000
 dn ___,0,$000
 dn ___,0,$000
 dn ___,0,$000
 dn ___,0,$000
 dn ___,0,$000
 dn ___,0,$000
 dn ___,0,$000
 dn ___,0,$000
 dn ___,0,$000
 dn ___,0,$000
 dn ___,0,$000
 dn ___,0,$000
 dn ___,0,$000
 dn ___,0,$000
 dn ___,1,$000

itNoiseSP11:
 dn ___,0,$000
 dn 36,2,$000
 dn 36,0,$000
 dn 36,0,$000
 dn 36,0,$000
 dn 36,0,$000
 dn 36,0,$000
 dn ___,0,$000
 dn ___,0,$000
 dn ___,0,$000
 dn ___,0,$000
 dn ___,0,$000
 dn ___,0,$000
 dn ___,0,$000
 dn ___,0,$000
 dn ___,0,$000
 dn ___,0,$000
 dn ___,0,$000
 dn ___,0,$000
 dn ___,0,$000
 dn ___,0,$000
 dn ___,0,$000
 dn ___,0,$000
 dn ___,0,$000
 dn ___,0,$000
 dn ___,0,$000
 dn ___,0,$000
 dn ___,0,$000
 dn ___,0,$000
 dn ___,0,$000
 dn ___,0,$000
 dn ___,1,$000

itNoiseSP12:
 dn ___,0,$000
 dn 36,2,$000
 dn 36,0,$000
 dn 36,0,$000
 dn 36,0,$000
 dn 36,0,$000
 dn 36,0,$000
 dn ___,0,$000
 dn ___,0,$000
 dn ___,0,$000
 dn ___,0,$000
 dn ___,0,$000
 dn ___,0,$000
 dn ___,0,$000
 dn ___,0,$000
 dn ___,0,$000
 dn ___,0,$000
 dn ___,0,$000
 dn ___,0,$000
 dn ___,0,$000
 dn ___,0,$000
 dn ___,0,$000
 dn ___,0,$000
 dn ___,0,$000
 dn ___,0,$000
 dn ___,0,$000
 dn ___,0,$000
 dn ___,0,$000
 dn ___,0,$000
 dn ___,0,$000
 dn ___,0,$000
 dn ___,1,$000

itNoiseSP13:
 dn ___,0,$000
 dn 36,2,$000
 dn 36,0,$000
 dn 36,0,$000
 dn 36,0,$000
 dn 36,0,$000
 dn 36,0,$000
 dn ___,0,$000
 dn ___,0,$000
 dn ___,0,$000
 dn ___,0,$000
 dn ___,0,$000
 dn ___,0,$000
 dn ___,0,$000
 dn ___,0,$000
 dn ___,0,$000
 dn ___,0,$000
 dn ___,0,$000
 dn ___,0,$000
 dn ___,0,$000
 dn ___,0,$000
 dn ___,0,$000
 dn ___,0,$000
 dn ___,0,$000
 dn ___,0,$000
 dn ___,0,$000
 dn ___,0,$000
 dn ___,0,$000
 dn ___,0,$000
 dn ___,0,$000
 dn ___,0,$000
 dn ___,1,$000

itNoiseSP14:
 dn ___,0,$000
 dn 36,2,$000
 dn 36,0,$000
 dn 36,0,$000
 dn 36,0,$000
 dn 36,0,$000
 dn 36,0,$000
 dn ___,0,$000
 dn ___,0,$000
 dn ___,0,$000
 dn ___,0,$000
 dn ___,0,$000
 dn ___,0,$000
 dn ___,0,$000
 dn ___,0,$000
 dn ___,0,$000
 dn ___,0,$000
 dn ___,0,$000
 dn ___,0,$000
 dn ___,0,$000
 dn ___,0,$000
 dn ___,0,$000
 dn ___,0,$000
 dn ___,0,$000
 dn ___,0,$000
 dn ___,0,$000
 dn ___,0,$000
 dn ___,0,$000
 dn ___,0,$000
 dn ___,0,$000
 dn ___,0,$000
 dn ___,1,$000

itNoiseSP15:
 dn ___,0,$000
 dn 36,2,$000
 dn 36,0,$000
 dn 36,0,$000
 dn 36,0,$000
 dn 36,0,$000
 dn 36,0,$000
 dn ___,0,$000
 dn ___,0,$000
 dn ___,0,$000
 dn ___,0,$000
 dn ___,0,$000
 dn ___,0,$000
 dn ___,0,$000
 dn ___,0,$000
 dn ___,0,$000
 dn ___,0,$000
 dn ___,0,$000
 dn ___,0,$000
 dn ___,0,$000
 dn ___,0,$000
 dn ___,0,$000
 dn ___,0,$000
 dn ___,0,$000
 dn ___,0,$000
 dn ___,0,$000
 dn ___,0,$000
 dn ___,0,$000
 dn ___,0,$000
 dn ___,0,$000
 dn ___,0,$000
 dn ___,1,$000

duty_instruments:
itSquareinst1:
db 8
db 128
db 193
dw 0
db 128

itSquareinst2:
db 8
db 128
db 67
dw 0
db 128

itSquareinst3:
db 8
db 0
db 64
dw 0
db 128

itSquareinst4:
db 28
db 128
db 145
dw 0
db 128

itSquareinst5:
db 8
db 64
db 177
dw 0
db 128

itSquareinst6:
db 29
db 128
db 145
dw 0
db 128

itSquareinst7:
db 8
db 0
db 240
dw 0
db 128

itSquareinst8:
db 8
db 0
db 240
dw 0
db 128

itSquareinst9:
db 8
db 128
db 240
dw 0
db 128

itSquareinst10:
db 8
db 128
db 240
dw 0
db 128

itSquareinst11:
db 8
db 128
db 240
dw 0
db 128

itSquareinst12:
db 8
db 128
db 240
dw 0
db 128

itSquareinst13:
db 8
db 128
db 240
dw 0
db 128

itSquareinst14:
db 8
db 128
db 240
dw 0
db 128

itSquareinst15:
db 8
db 128
db 240
dw 0
db 128



wave_instruments:
itWaveinst1:
db 0
db 64
db 0
dw 0
db 128

itWaveinst2:
db 0
db 64
db 1
dw 0
db 128

itWaveinst3:
db 0
db 64
db 2
dw 0
db 128

itWaveinst4:
db 0
db 64
db 3
dw 0
db 128

itWaveinst5:
db 0
db 64
db 4
dw 0
db 128

itWaveinst6:
db 0
db 64
db 5
dw 0
db 128

itWaveinst7:
db 0
db 64
db 6
dw 0
db 128

itWaveinst8:
db 0
db 32
db 0
dw 0
db 128

itWaveinst9:
db 0
db 32
db 0
dw 0
db 128

itWaveinst10:
db 0
db 32
db 0
dw 0
db 128

itWaveinst11:
db 0
db 32
db 0
dw 0
db 128

itWaveinst12:
db 0
db 32
db 11
dw 0
db 128

itWaveinst13:
db 0
db 32
db 12
dw 0
db 128

itWaveinst14:
db 0
db 32
db 13
dw 0
db 128

itWaveinst15:
db 0
db 32
db 14
dw 0
db 128



noise_instruments:
itNoiseinst1:
db 113
dw itNoiseSP1
db 0
ds 2

itNoiseinst2:
db 113
dw itNoiseSP2
db 0
ds 2

itNoiseinst3:
db 99
dw itNoiseSP3
db 0
ds 2

itNoiseinst4:
db 240
dw itNoiseSP4
db 0
ds 2

itNoiseinst5:
db 240
dw itNoiseSP5
db 0
ds 2

itNoiseinst6:
db 240
dw itNoiseSP6
db 0
ds 2

itNoiseinst7:
db 240
dw itNoiseSP7
db 0
ds 2

itNoiseinst8:
db 240
dw itNoiseSP8
db 0
ds 2

itNoiseinst9:
db 240
dw itNoiseSP9
db 0
ds 2

itNoiseinst10:
db 240
dw itNoiseSP10
db 0
ds 2

itNoiseinst11:
db 240
dw itNoiseSP11
db 0
ds 2

itNoiseinst12:
db 240
dw itNoiseSP12
db 0
ds 2

itNoiseinst13:
db 240
dw itNoiseSP13
db 0
ds 2

itNoiseinst14:
db 240
dw itNoiseSP14
db 0
ds 2

itNoiseinst15:
db 240
dw itNoiseSP15
db 0
ds 2



routines:
__hUGE_Routine_0:

__end_hUGE_Routine_0:
ret

__hUGE_Routine_1:

__end_hUGE_Routine_1:
ret

__hUGE_Routine_2:

__end_hUGE_Routine_2:
ret

__hUGE_Routine_3:

__end_hUGE_Routine_3:
ret

__hUGE_Routine_4:

__end_hUGE_Routine_4:
ret

__hUGE_Routine_5:

__end_hUGE_Routine_5:
ret

__hUGE_Routine_6:

__end_hUGE_Routine_6:
ret

__hUGE_Routine_7:

__end_hUGE_Routine_7:
ret

__hUGE_Routine_8:

__end_hUGE_Routine_8:
ret

__hUGE_Routine_9:

__end_hUGE_Routine_9:
ret

__hUGE_Routine_10:

__end_hUGE_Routine_10:
ret

__hUGE_Routine_11:

__end_hUGE_Routine_11:
ret

__hUGE_Routine_12:

__end_hUGE_Routine_12:
ret

__hUGE_Routine_13:

__end_hUGE_Routine_13:
ret

__hUGE_Routine_14:

__end_hUGE_Routine_14:
ret

__hUGE_Routine_15:

__end_hUGE_Routine_15:
ret

waves:
wave0: db 72,255,255,255,255,255,255,132,0,102,6,96,0,79,255,136
wave1: db 0,0,0,0,0,0,0,0,221,221,221,221,221,221,221,221
wave2: db 0,17,34,34,51,68,85,102,119,119,136,153,170,187,187,204
wave3: db 0,0,0,0,0,0,0,0,0,187,187,187,187,187,187,187
wave4: db 0,0,0,0,0,0,0,0,0,0,0,0,221,221,221,221
wave5: db 0,0,0,0,0,0,0,0,0,0,0,0,13,221,221,221
wave6: db 0,0,0,0,0,0,0,0,0,0,0,0,0,13,221,221
wave7: db 0,0,0,0,0,0,0,0,0,0,0,0,0,0,0,0
wave8: db 0,0,0,0,0,0,0,0,0,0,0,0,0,0,0,0
wave9: db 0,0,0,0,0,0,0,0,0,0,0,0,0,0,0,0
wave10: db 0,0,0,0,0,0,0,0,0,0,0,0,0,0,0,0
wave11: db 0,0,0,0,0,0,0,0,0,0,0,0,0,0,0,0
wave12: db 0,0,0,0,0,0,0,0,0,0,0,0,0,0,0,0
wave13: db 0,0,0,0,0,0,0,0,0,0,0,0,0,0,0,0
wave14: db 0,0,0,0,0,0,0,0,0,0,0,0,0,0,0,0
wave15: db 0,0,0,0,0,0,0,0,0,0,0,0,0,0,0,0

