#include "hUGEDriver.h"
#include <stddef.h>

static const unsigned char order_cnt = 16;

static const unsigned char P0[] = {
    DN(C_6,1,0x102),
    DN(D_6,0,0x308),
    DN(___,0,0x477),
    DN(___,0,0x400),
    DN(C_6,1,0x000),
    DN(___,0,0x000),
    DN(D_6,1,0xC06),
    DN(___,0,0x000),
    DN(A_5,1,0x000),
    DN(___,0,0x000),
    DN(F_5,1,0x000),
    DN(___,0,0x000),
    DN(G_5,1,0x000),
    DN(___,0,0x000),
    DN(A_5,0,0x302),
    DN(___,0,0x302),
    DN(___,0,0x302),
    DN(___,0,0x302),
    DN(G_5,1,0x000),
    DN(___,0,0x000),
    DN(F_5,1,0x000),
    DN(___,0,0x000),
    DN(D_5,1,0x000),
    DN(D_5,1,0xC06),
    DN(F_5,1,0x102),
    DN(G_5,0,0x308),
    DN(F_5,1,0x000),
    DN(___,0,0x000),
    DN(E_5,1,0x000),
    DN(___,0,0x000),
    DN(F_5,1,0x000),
    DN(___,0,0x000),
    DN(E_5,1,0x000),
    DN(___,0,0x000),
    DN(C_5,1,0x000),
    DN(___,0,0x000),
    DN(E_5,1,0xC06),
    DN(___,0,0x000),
    DN(A_4,1,0x000),
    DN(___,0,0x000),
    DN(C_5,1,0xC06),
    DN(___,0,0x000),
    DN(A_4,1,0x000),
    DN(___,0,0x000),
    DN(C_5,1,0x000),
    DN(C_5,1,0xC06),
    DN(C_5,1,0x102),
    DN(D_5,0,0x306),
    DN(___,0,0x306),
    DN(___,0,0x306),
    DN(A_4,1,0x000),
    DN(___,0,0xC06),
    DN(C_5,1,0x000),
    DN(___,0,0x000),
    DN(D_5,1,0x000),
    DN(D_5,1,0xC06),
    DN(E_5,1,0x000),
    DN(F_5,0,0x308),
    DN(E_5,0,0x308),
    DN(___,0,0x000),
    DN(D_5,1,0x000),
    DN(___,0,0x000),
    DN(C_5,1,0x000),
    DN(___,0,0x000),
};
static const unsigned char P1[] = {
    DN(D_3,1,0xC0F),
    DN(D_3,1,0xC04),
    DN(D_4,2,0xC0F),
    DN(___,0,0x000),
    DN(D_3,2,0xC0F),
    DN(D_3,3,0xC04),
    DN(D_3,3,0xC0F),
    DN(D_3,4,0xC04),
    DN(D_4,4,0xC0F),
    DN(D_4,5,0xC04),
    DN(D_3,5,0xC0F),
    DN(D_3,6,0xC04),
    DN(C_4,6,0xC0F),
    DN(___,0,0x000),
    DN(D_4,7,0xC0F),
    DN(D_4,7,0xC04),
    DN(D_3,8,0xC0F),
    DN(D_3,8,0xC04),
    DN(D_4,9,0xC0F),
    DN(___,0,0x000),
    DN(D_3,9,0xC0F),
    DN(D_3,8,0xC04),
    DN(D_3,8,0xC0F),
    DN(D_3,7,0xC04),
    DN(D_4,7,0xC0F),
    DN(D_4,6,0xC04),
    DN(D_3,6,0xC0F),
    DN(D_3,5,0xC04),
    DN(C_4,5,0xC0F),
    DN(___,0,0x000),
    DN(D_4,4,0xC0F),
    DN(D_4,4,0xC04),
    DN(D_3,3,0xC0F),
    DN(D_3,3,0xC04),
    DN(D_4,2,0xC0F),
    DN(___,0,0x000),
    DN(D_3,2,0xC0F),
    DN(D_3,1,0xC04),
    DN(D_3,1,0xC0F),
    DN(D_3,2,0xC04),
    DN(D_4,2,0xC0F),
    DN(D_4,3,0xC04),
    DN(D_3,3,0xC0F),
    DN(D_3,4,0xC04),
    DN(C_4,4,0xC0F),
    DN(___,0,0x000),
    DN(D_4,5,0xC0F),
    DN(D_4,5,0xC04),
    DN(D_3,6,0xC0F),
    DN(D_3,6,0xC04),
    DN(D_4,7,0xC0F),
    DN(___,0,0x000),
    DN(D_3,7,0xC0F),
    DN(D_3,8,0xC04),
    DN(D_3,8,0xC0F),
    DN(D_3,9,0xC04),
    DN(D_4,9,0xC0F),
    DN(D_4,8,0xC04),
    DN(D_3,8,0xC0F),
    DN(D_3,7,0xC04),
    DN(C_4,7,0xC0F),
    DN(___,0,0x000),
    DN(D_4,6,0xC0F),
    DN(D_4,6,0xC04),
};
static const unsigned char P2[] = {
    DN(D_5,2,0x037),
    DN(___,0,0x037),
    DN(___,0,0x037),
    DN(___,0,0x037),
    DN(D_5,2,0x037),
    DN(___,0,0x037),
    DN(___,0,0x037),
    DN(___,0,0x037),
    DN(___,0,0x037),
    DN(___,0,0x037),
    DN(D_5,2,0x037),
    DN(___,0,0x037),
    DN(___,0,0x037),
    DN(___,0,0x037),
    DN(D_5,2,0x038),
    DN(___,0,0x038),
    DN(___,0,0x038),
    DN(___,0,0x038),
    DN(D_5,2,0x038),
    DN(___,0,0x038),
    DN(___,0,0x038),
    DN(___,0,0x038),
    DN(D_5,2,0x037),
    DN(___,0,0x037),
    DN(D_5,2,0x038),
    DN(___,0,0x038),
    DN(___,0,0x038),
    DN(___,0,0x038),
    DN(D_5,2,0x03A),
    DN(___,0,0x03A),
    DN(___,0,0x03A),
    DN(___,0,0x03A),
    DN(D_5,2,0x03A),
    DN(___,0,0x03A),
    DN(___,0,0x03A),
    DN(___,0,0x03A),
    DN(D_5,2,0x03A),
    DN(___,0,0x03A),
    DN(___,0,0x03A),
    DN(___,0,0x03A),
    DN(___,0,0x03A),
    DN(___,0,0x03A),
    DN(D_5,2,0x03A),
    DN(___,0,0x03A),
    DN(___,0,0x03A),
    DN(___,0,0x03A),
    DN(D_5,2,0x039),
    DN(___,0,0x039),
    DN(___,0,0x039),
    DN(___,0,0x039),
    DN(D_5,2,0x039),
    DN(___,0,0x039),
    DN(___,0,0x039),
    DN(___,0,0x039),
    DN(D_5,2,0x039),
    DN(___,0,0x039),
    DN(D_5,2,0x03A),
    DN(___,0,0x03A),
    DN(___,0,0x03A),
    DN(___,0,0x03A),
    DN(D_5,2,0x039),
    DN(___,0,0x039),
    DN(___,0,0x039),
    DN(___,0,0x039),
};
static const unsigned char P3[] = {
    DN(C_4,1,0xF06),
    DN(___,0,0x000),
    DN(C_5,3,0xF03),
    DN(___,0,0x000),
    DN(C_5,3,0xF06),
    DN(___,0,0x000),
    DN(C_5,3,0xF03),
    DN(___,0,0x000),
    DN(F_5,2,0xF06),
    DN(___,0,0x000),
    DN(C_5,3,0xF03),
    DN(___,0,0x000),
    DN(C_5,3,0xF06),
    DN(___,0,0x000),
    DN(C_5,3,0xF03),
    DN(___,0,0x000),
    DN(C_5,3,0xF06),
    DN(___,0,0x000),
    DN(C_5,3,0xF03),
    DN(___,0,0x000),
    DN(C_5,3,0xF06),
    DN(___,0,0x000),
    DN(C_4,1,0xF03),
    DN(___,0,0x000),
    DN(F_5,2,0xF06),
    DN(___,0,0x000),
    DN(C_5,3,0xF03),
    DN(___,0,0x000),
    DN(C_4,1,0xF06),
    DN(___,0,0x000),
    DN(C_5,3,0xF03),
    DN(___,0,0x000),
    DN(C_4,1,0xF06),
    DN(___,0,0x000),
    DN(C_5,3,0xF03),
    DN(___,0,0x000),
    DN(C_4,1,0xF06),
    DN(___,0,0x000),
    DN(C_5,3,0xF03),
    DN(___,0,0x000),
    DN(F_5,2,0xF06),
    DN(___,0,0x000),
    DN(C_5,3,0xF03),
    DN(___,0,0x000),
    DN(C_5,3,0xF06),
    DN(___,0,0x000),
    DN(C_5,3,0xF03),
    DN(___,0,0x000),
    DN(C_5,3,0xF06),
    DN(___,0,0x000),
    DN(C_5,3,0xF03),
    DN(___,0,0x000),
    DN(C_5,3,0xF06),
    DN(___,0,0x000),
    DN(C_4,1,0xF03),
    DN(___,0,0x000),
    DN(F_5,2,0xF06),
    DN(___,0,0x000),
    DN(C_4,1,0xF03),
    DN(___,0,0x000),
    DN(C_5,3,0xF06),
    DN(C_5,3,0x000),
    DN(C_4,1,0xF03),
    DN(___,0,0x000),
};
static const unsigned char P4[] = {
    DN(C_6,1,0x102),
    DN(D_6,0,0x308),
    DN(___,0,0x477),
    DN(___,0,0x400),
    DN(C_6,1,0x000),
    DN(___,0,0x000),
    DN(D_6,1,0xC06),
    DN(___,0,0x000),
    DN(A_5,1,0x000),
    DN(___,0,0x000),
    DN(F_5,1,0x000),
    DN(___,0,0x000),
    DN(G_5,1,0x000),
    DN(___,0,0x000),
    DN(A_5,0,0x302),
    DN(___,0,0x302),
    DN(___,0,0x302),
    DN(___,0,0x302),
    DN(G_5,1,0x000),
    DN(___,0,0x000),
    DN(F_5,1,0x000),
    DN(___,0,0x000),
    DN(D_5,1,0x000),
    DN(D_5,1,0xC06),
    DN(F_5,1,0x102),
    DN(G_5,0,0x308),
    DN(F_5,1,0x000),
    DN(___,0,0x000),
    DN(E_5,1,0x000),
    DN(___,0,0x000),
    DN(F_5,1,0x000),
    DN(___,0,0x000),
    DN(E_5,1,0x000),
    DN(___,0,0x000),
    DN(C_5,1,0x000),
    DN(___,0,0x000),
    DN(E_5,1,0xC06),
    DN(___,0,0x000),
    DN(A_4,1,0x000),
    DN(___,0,0x000),
    DN(C_5,1,0xC06),
    DN(___,0,0x000),
    DN(A_4,1,0x000),
    DN(___,0,0x000),
    DN(C_5,1,0x000),
    DN(C_5,1,0xC06),
    DN(C_5,1,0x102),
    DN(D_5,0,0x306),
    DN(___,0,0x306),
    DN(___,0,0x306),
    DN(A_4,1,0x000),
    DN(___,0,0xC06),
    DN(C_5,1,0x000),
    DN(___,0,0x000),
    DN(D_5,1,0x000),
    DN(D_5,1,0xC06),
    DN(E_5,1,0x000),
    DN(F_5,0,0x308),
    DN(E_5,0,0x308),
    DN(___,0,0x000),
    DN(D_5,1,0x000),
    DN(___,0,0x000),
    DN(C_5,1,0x000),
    DN(___,0,0x000),
};
static const unsigned char P5[] = {
    DN(D_5,2,0x037),
    DN(___,0,0x037),
    DN(___,0,0x037),
    DN(___,0,0x037),
    DN(D_5,2,0x037),
    DN(___,0,0x037),
    DN(___,0,0x037),
    DN(___,0,0x037),
    DN(___,0,0x037),
    DN(___,0,0x037),
    DN(D_5,2,0x037),
    DN(___,0,0x037),
    DN(___,0,0x037),
    DN(___,0,0x037),
    DN(D_5,2,0x038),
    DN(___,0,0x038),
    DN(___,0,0x038),
    DN(___,0,0x038),
    DN(D_5,2,0x038),
    DN(___,0,0x038),
    DN(___,0,0x038),
    DN(___,0,0x038),
    DN(D_5,2,0x037),
    DN(___,0,0x037),
    DN(D_5,2,0x038),
    DN(___,0,0x038),
    DN(___,0,0x038),
    DN(___,0,0x038),
    DN(D_5,2,0x03A),
    DN(___,0,0x03A),
    DN(___,0,0x03A),
    DN(___,0,0x03A),
    DN(D_5,2,0x03A),
    DN(___,0,0x03A),
    DN(___,0,0x03A),
    DN(___,0,0x03A),
    DN(D_5,2,0x03A),
    DN(___,0,0x03A),
    DN(___,0,0x03A),
    DN(___,0,0x03A),
    DN(___,0,0x03A),
    DN(___,0,0x03A),
    DN(D_5,2,0x03A),
    DN(___,0,0x03A),
    DN(___,0,0x03A),
    DN(___,0,0x03A),
    DN(D_5,2,0x039),
    DN(___,0,0x039),
    DN(___,0,0x039),
    DN(___,0,0x039),
    DN(D_5,2,0x039),
    DN(___,0,0x039),
    DN(___,0,0x039),
    DN(___,0,0x039),
    DN(D_5,2,0x039),
    DN(___,0,0x039),
    DN(D_5,2,0x03A),
    DN(___,0,0x03A),
    DN(___,0,0x03A),
    DN(___,0,0x03A),
    DN(D_5,2,0x039),
    DN(___,0,0x039),
    DN(___,0,0x039),
    DN(___,0,0x039),
};
static const unsigned char P6[] = {
    DN(D_3,2,0xC0F),
    DN(D_3,2,0xC04),
    DN(D_4,2,0xC0F),
    DN(___,0,0x000),
    DN(D_3,2,0xC0F),
    DN(D_3,2,0xC04),
    DN(D_3,2,0xC0F),
    DN(D_3,2,0xC04),
    DN(D_4,2,0xC0F),
    DN(D_4,2,0xC04),
    DN(D_3,2,0xC0F),
    DN(D_3,2,0xC04),
    DN(C_4,2,0xC0F),
    DN(___,0,0x000),
    DN(D_4,2,0xC0F),
    DN(D_4,2,0xC04),
    DN(D_3,2,0xC0F),
    DN(D_3,2,0xC04),
    DN(D_4,2,0xC0F),
    DN(___,0,0x000),
    DN(D_3,2,0xC0F),
    DN(D_3,2,0xC04),
    DN(D_3,2,0xC0F),
    DN(D_3,2,0xC04),
    DN(D_4,2,0xC0F),
    DN(D_4,2,0xC04),
    DN(D_3,2,0xC0F),
    DN(D_3,2,0xC04),
    DN(C_4,2,0xC0F),
    DN(___,0,0x000),
    DN(D_4,2,0xC0F),
    DN(D_4,2,0xC04),
    DN(D_3,2,0xC0F),
    DN(D_3,2,0xC04),
    DN(D_4,2,0xC0F),
    DN(___,0,0x000),
    DN(D_3,2,0xC0F),
    DN(D_3,2,0xC04),
    DN(D_3,2,0xC0F),
    DN(D_3,2,0xC04),
    DN(D_4,2,0xC0F),
    DN(D_4,2,0xC04),
    DN(D_3,2,0xC0F),
    DN(D_3,2,0xC04),
    DN(C_4,2,0xC0F),
    DN(___,0,0x000),
    DN(D_4,2,0xC0F),
    DN(D_4,2,0xC04),
    DN(D_3,2,0xC0F),
    DN(D_3,2,0xC04),
    DN(D_4,2,0xC0F),
    DN(___,0,0x000),
    DN(D_3,2,0xC0F),
    DN(D_3,2,0xC04),
    DN(D_3,2,0xC0F),
    DN(D_3,2,0xC04),
    DN(D_4,2,0xC0F),
    DN(D_4,2,0xC04),
    DN(D_3,2,0xC0F),
    DN(D_3,2,0xC04),
    DN(C_4,2,0xC0F),
    DN(___,0,0x000),
    DN(D_4,2,0xC0F),
    DN(D_4,2,0xC04),
};
static const unsigned char P7[] = {
    DN(___,0,0xF06),
    DN(___,0,0x000),
    DN(___,0,0xF03),
    DN(___,0,0x000),
    DN(___,0,0xF06),
    DN(___,0,0x000),
    DN(___,0,0xF03),
    DN(___,0,0x000),
    DN(___,0,0xF06),
    DN(___,0,0x000),
    DN(___,0,0xF03),
    DN(___,0,0x000),
    DN(___,0,0xF06),
    DN(___,0,0x000),
    DN(___,0,0xF03),
    DN(___,0,0x000),
    DN(___,0,0xF06),
    DN(___,0,0x000),
    DN(___,0,0xF03),
    DN(___,0,0x000),
    DN(___,0,0xF06),
    DN(___,0,0x000),
    DN(___,0,0xF03),
    DN(___,0,0x000),
    DN(___,0,0xF06),
    DN(___,0,0x000),
    DN(___,0,0xF03),
    DN(___,0,0x000),
    DN(___,0,0xF06),
    DN(___,0,0x000),
    DN(___,0,0xF03),
    DN(___,0,0x000),
    DN(___,0,0xF06),
    DN(___,0,0x000),
    DN(___,0,0xF03),
    DN(___,0,0x000),
    DN(___,0,0xF06),
    DN(___,0,0x000),
    DN(___,0,0xF03),
    DN(___,0,0x000),
    DN(___,0,0xF06),
    DN(___,0,0x000),
    DN(___,0,0xF03),
    DN(___,0,0x000),
    DN(___,0,0xF06),
    DN(___,0,0x000),
    DN(___,0,0xF03),
    DN(___,0,0x000),
    DN(___,0,0xF06),
    DN(___,0,0x000),
    DN(___,0,0xF03),
    DN(___,0,0x000),
    DN(___,0,0xF06),
    DN(___,0,0x000),
    DN(___,0,0xF03),
    DN(___,0,0x000),
    DN(___,0,0xF06),
    DN(___,0,0x000),
    DN(___,0,0xF03),
    DN(___,0,0x000),
    DN(___,0,0xF06),
    DN(___,0,0x000),
    DN(___,0,0xF03),
    DN(___,0,0x000),
};
static const unsigned char P8[] = {
    DN(D_5,1,0x000),
    DN(___,0,0x000),
    DN(A_4,1,0x000),
    DN(___,0,0x000),
    DN(C_5,1,0xC06),
    DN(___,0,0x000),
    DN(D_5,1,0x000),
    DN(___,0,0x000),
    DN(A_4,1,0x000),
    DN(___,0,0x000),
    DN(C_5,1,0xC06),
    DN(___,0,0x000),
    DN(D_5,1,0x000),
    DN(___,0,0x000),
    DN(A_4,1,0x000),
    DN(___,0,0x000),
    DN(C_5,1,0xC06),
    DN(___,0,0x000),
    DN(D_5,1,0x000),
    DN(___,0,0x000),
    DN(A_4,1,0x000),
    DN(___,0,0x000),
    DN(C_5,1,0xC06),
    DN(___,0,0x000),
    DN(D_5,1,0x000),
    DN(C_5,1,0x000),
    DN(D_5,1,0x000),
    DN(___,0,0x000),
    DN(E_5,1,0x000),
    DN(D_5,1,0x000),
    DN(E_5,1,0x000),
    DN(___,0,0x000),
    DN(F_5,1,0x000),
    DN(___,0,0x000),
    DN(E_5,1,0x000),
    DN(___,0,0x000),
    DN(F_5,1,0xC06),
    DN(___,0,0x000),
    DN(F_5,1,0x000),
    DN(___,0,0x000),
    DN(G_5,1,0x000),
    DN(___,0,0x000),
    DN(F_5,1,0xC06),
    DN(___,0,0x000),
    DN(G_5,1,0x102),
    DN(A_5,0,0x308),
    DN(D_5,1,0x000),
    DN(___,0,0x000),
    DN(___,0,0x423),
    DN(___,0,0x423),
    DN(___,0,0x423),
    DN(___,0,0x423),
    DN(___,0,0x423),
    DN(___,0,0x423),
    DN(___,0,0x423),
    DN(___,0,0x423),
    DN(___,0,0x423),
    DN(___,0,0x423),
    DN(___,0,0x423),
    DN(___,0,0x423),
    DN(C_5,1,0x000),
    DN(___,0,0x000),
    DN(D_5,1,0x000),
    DN(D_5,1,0xC06),
};
static const unsigned char P9[] = {
    DN(E_5,1,0x102),
    DN(F_5,0,0x308),
    DN(E_5,0,0x304),
    DN(___,0,0x304),
    DN(D_5,1,0x000),
    DN(___,0,0x000),
    DN(C_5,1,0x000),
    DN(C_5,1,0xC10),
    DN(D_5,1,0x000),
    DN(___,0,0x000),
    DN(A_5,0,0x338),
    DN(___,0,0x000),
    DN(G_5,1,0xC10),
    DN(___,0,0x000),
    DN(A_5,1,0x000),
    DN(___,0,0x000),
    DN(A_5,1,0xC10),
    DN(___,0,0x000),
    DN(G_5,1,0x000),
    DN(___,0,0x000),
    DN(A_5,1,0xC10),
    DN(___,0,0x000),
    DN(F_5,1,0x000),
    DN(___,0,0x000),
    DN(E_5,1,0x000),
    DN(___,0,0x000),
    DN(F_5,1,0x000),
    DN(___,0,0x000),
    DN(E_5,1,0x000),
    DN(___,0,0x000),
    DN(C_5,1,0x000),
    DN(___,0,0x000),
    DN(A_4,1,0x000),
    DN(___,0,0x222),
    DN(A_4,1,0x000),
    DN(___,0,0x000),
    DN(C_5,1,0x000),
    DN(___,0,0x000),
    DN(D_5,1,0x000),
    DN(___,0,0x472),
    DN(___,0,0x474),
    DN(___,0,0x476),
    DN(C_5,1,0x000),
    DN(___,0,0x000),
    DN(D_5,1,0x000),
    DN(___,0,0x000),
    DN(E_5,1,0x000),
    DN(E_5,1,0xC10),
    DN(E_5,1,0x000),
    DN(F_5,0,0x304),
    DN(E_5,0,0x304),
    DN(___,0,0x304),
    DN(D_5,1,0x000),
    DN(___,0,0x000),
    DN(C_5,1,0x000),
    DN(___,0,0x000),
    DN(D_5,1,0x000),
    DN(___,0,0x000),
    DN(A_4,0,0x328),
    DN(___,0,0x000),
    DN(A_5,0,0x328),
    DN(___,0,0x328),
    DN(G_5,1,0x101),
    DN(A_5,0,0x308),
};
static const unsigned char P10[] = {
    DN(___,0,0x308),
    DN(___,0,0x472),
    DN(___,0,0x474),
    DN(___,0,0x476),
    DN(G_5,1,0x000),
    DN(___,0,0x000),
    DN(F_5,1,0x000),
    DN(___,0,0x000),
    DN(E_5,1,0x000),
    DN(___,0,0x000),
    DN(___,0,0x427),
    DN(___,0,0x222),
    DN(F_5,1,0x000),
    DN(___,0,0x000),
    DN(E_5,1,0x000),
    DN(___,0,0x000),
    DN(___,0,0x427),
    DN(___,0,0x222),
    DN(D_5,1,0x000),
    DN(___,0,0x000),
    DN(___,0,0x427),
    DN(___,0,0x222),
    DN(C_5,1,0x000),
    DN(___,0,0x000),
    DN(___,0,0x427),
    DN(___,0,0x222),
    DN(D_5,1,0x000),
    DN(___,0,0x000),
    DN(E_5,1,0x000),
    DN(___,0,0x000),
    DN(___,0,0x427),
    DN(___,0,0x222),
    DN(G_4,1,0x000),
    DN(Gs4,0,0x306),
    DN(A_4,0,0x306),
    DN(___,0,0x306),
    DN(___,0,0x306),
    DN(___,0,0x000),
    DN(___,0,0x000),
    DN(___,0,0x000),
    DN(___,0,0x427),
    DN(___,0,0x427),
    DN(___,0,0x427),
    DN(___,0,0x427),
    DN(___,0,0x427),
    DN(___,0,0x427),
    DN(___,0,0x427),
    DN(___,0,0x427),
    DN(___,0,0x427),
    DN(___,0,0x427),
    DN(___,0,0x427),
    DN(___,0,0x427),
    DN(___,0,0x427),
    DN(___,0,0x427),
    DN(___,0,0x427),
    DN(___,0,0x427),
    DN(___,0,0x427),
    DN(___,0,0x427),
    DN(___,0,0x427),
    DN(___,0,0x427),
    DN(___,0,0x427),
    DN(___,0,0x427),
    DN(___,0,0x427),
    DN(___,0,0x427),
};
static const unsigned char P11[] = {
    DN(D_5,2,0x037),
    DN(___,0,0x037),
    DN(___,0,0x037),
    DN(___,0,0x037),
    DN(D_5,2,0x037),
    DN(___,0,0x037),
    DN(___,0,0x037),
    DN(___,0,0x037),
    DN(___,0,0x037),
    DN(___,0,0x037),
    DN(D_5,2,0x037),
    DN(___,0,0x037),
    DN(___,0,0x037),
    DN(___,0,0x037),
    DN(D_5,2,0x038),
    DN(___,0,0x038),
    DN(___,0,0x038),
    DN(___,0,0x038),
    DN(D_5,2,0x038),
    DN(___,0,0x038),
    DN(___,0,0x038),
    DN(___,0,0x038),
    DN(D_5,2,0x037),
    DN(___,0,0x037),
    DN(D_5,2,0x038),
    DN(___,0,0x038),
    DN(___,0,0x038),
    DN(___,0,0x038),
    DN(D_5,2,0x03A),
    DN(___,0,0x03A),
    DN(___,0,0x03A),
    DN(___,0,0x03A),
    DN(D_5,2,0x03A),
    DN(___,0,0x03A),
    DN(___,0,0x03A),
    DN(___,0,0x03A),
    DN(D_5,2,0x03A),
    DN(___,0,0x03A),
    DN(___,0,0x03A),
    DN(___,0,0x03A),
    DN(___,0,0x03A),
    DN(___,0,0x03A),
    DN(D_5,2,0x03A),
    DN(___,0,0x03A),
    DN(___,0,0x03A),
    DN(___,0,0x03A),
    DN(D_5,2,0x038),
    DN(___,0,0x038),
    DN(___,0,0x038),
    DN(___,0,0x038),
    DN(D_5,2,0x038),
    DN(___,0,0x038),
    DN(___,0,0x038),
    DN(___,0,0x038),
    DN(D_5,2,0x038),
    DN(___,0,0x038),
    DN(D_5,2,0x038),
    DN(___,0,0x038),
    DN(___,0,0x038),
    DN(___,0,0x038),
    DN(D_5,2,0x038),
    DN(___,0,0x038),
    DN(___,0,0x038),
    DN(___,0,0x038),
};
static const unsigned char P12[] = {
    DN(C_5,3,0xF06),
    DN(___,0,0x000),
    DN(C_5,4,0xF03),
    DN(___,0,0x000),
    DN(C_5,3,0xF06),
    DN(___,0,0x000),
    DN(C_5,4,0xF03),
    DN(___,0,0x000),
    DN(C_5,3,0xF06),
    DN(___,0,0x000),
    DN(C_5,4,0xF03),
    DN(___,0,0x000),
    DN(C_5,3,0xF06),
    DN(___,0,0x000),
    DN(C_5,4,0xF03),
    DN(___,0,0x000),
    DN(C_5,3,0xF06),
    DN(___,0,0x000),
    DN(C_5,4,0xF03),
    DN(___,0,0x000),
    DN(C_5,3,0xF06),
    DN(___,0,0x000),
    DN(C_5,4,0xF03),
    DN(___,0,0x000),
    DN(C_5,3,0xF06),
    DN(___,0,0x000),
    DN(C_5,4,0xF03),
    DN(___,0,0x000),
    DN(C_5,3,0xF06),
    DN(___,0,0x000),
    DN(C_5,4,0xF03),
    DN(___,0,0x000),
    DN(C_5,3,0xF06),
    DN(___,0,0x000),
    DN(C_5,4,0xF03),
    DN(___,0,0x000),
    DN(C_5,3,0xF06),
    DN(___,0,0x000),
    DN(C_5,4,0xF03),
    DN(___,0,0x000),
    DN(C_5,3,0xF06),
    DN(___,0,0x000),
    DN(C_5,4,0xF03),
    DN(___,0,0x000),
    DN(C_5,3,0xF06),
    DN(___,0,0x000),
    DN(C_5,4,0xF03),
    DN(___,0,0x000),
    DN(C_5,3,0xF06),
    DN(___,0,0x000),
    DN(C_5,4,0xF03),
    DN(___,0,0x000),
    DN(C_5,3,0xF06),
    DN(___,0,0x000),
    DN(C_5,4,0xF03),
    DN(___,0,0x000),
    DN(C_5,3,0xF06),
    DN(___,0,0x000),
    DN(C_5,4,0xF03),
    DN(___,0,0x000),
    DN(C_5,3,0xF06),
    DN(C_5,4,0x000),
    DN(C_5,4,0xF03),
    DN(___,0,0x000),
};
static const unsigned char P13[] = {
    DN(___,0,0x000),
    DN(___,0,0x000),
    DN(___,0,0x000),
    DN(___,0,0x000),
    DN(___,0,0x000),
    DN(___,0,0x000),
    DN(___,0,0x000),
    DN(___,0,0x000),
    DN(___,0,0x000),
    DN(___,0,0x000),
    DN(___,0,0x000),
    DN(___,0,0x000),
    DN(___,0,0x000),
    DN(___,0,0x000),
    DN(___,0,0x000),
    DN(___,0,0x000),
    DN(___,0,0x000),
    DN(___,0,0x000),
    DN(___,0,0x000),
    DN(___,0,0x000),
    DN(___,0,0x000),
    DN(___,0,0x000),
    DN(___,0,0x000),
    DN(___,0,0x000),
    DN(___,0,0x000),
    DN(___,0,0x000),
    DN(___,0,0x000),
    DN(___,0,0x000),
    DN(___,0,0x000),
    DN(___,0,0x000),
    DN(___,0,0x000),
    DN(___,0,0x000),
    DN(___,0,0x000),
    DN(___,0,0x000),
    DN(___,0,0x000),
    DN(___,0,0x000),
    DN(___,0,0x000),
    DN(___,0,0x000),
    DN(___,0,0x000),
    DN(___,0,0x000),
    DN(___,0,0x000),
    DN(___,0,0x000),
    DN(___,0,0x000),
    DN(___,0,0x000),
    DN(___,0,0x000),
    DN(___,0,0x000),
    DN(___,0,0x000),
    DN(___,0,0x000),
    DN(___,0,0x000),
    DN(___,0,0x000),
    DN(___,0,0x000),
    DN(___,0,0x000),
    DN(___,0,0x000),
    DN(___,0,0x000),
    DN(___,0,0x000),
    DN(___,0,0x000),
    DN(___,0,0x000),
    DN(___,0,0x000),
    DN(___,0,0x000),
    DN(___,0,0x000),
    DN(___,0,0x000),
    DN(___,0,0x000),
    DN(___,0,0x000),
    DN(___,0,0x000),
};
static const unsigned char P14[] = {
    DN(D_5,2,0x037),
    DN(___,0,0x037),
    DN(___,0,0x037),
    DN(___,0,0x037),
    DN(D_5,2,0x037),
    DN(___,0,0x037),
    DN(___,0,0x037),
    DN(___,0,0x037),
    DN(___,0,0x037),
    DN(___,0,0x037),
    DN(D_5,2,0x037),
    DN(___,0,0x037),
    DN(___,0,0x037),
    DN(___,0,0x037),
    DN(D_5,2,0x038),
    DN(___,0,0x038),
    DN(___,0,0x038),
    DN(___,0,0x038),
    DN(D_5,2,0x038),
    DN(___,0,0x038),
    DN(___,0,0x038),
    DN(___,0,0x038),
    DN(D_5,2,0x037),
    DN(___,0,0x037),
    DN(D_5,2,0x038),
    DN(___,0,0x038),
    DN(___,0,0x038),
    DN(___,0,0x038),
    DN(D_5,2,0x03A),
    DN(___,0,0x03A),
    DN(___,0,0x03A),
    DN(___,0,0x03A),
    DN(E_5,2,0x038),
    DN(___,0,0x038),
    DN(___,0,0x038),
    DN(___,0,0x038),
    DN(E_5,2,0x038),
    DN(___,0,0x038),
    DN(___,0,0x038),
    DN(___,0,0x038),
    DN(___,0,0x038),
    DN(___,0,0x038),
    DN(E_5,2,0x038),
    DN(___,0,0x038),
    DN(___,0,0x038),
    DN(___,0,0x038),
    DN(E_5,2,0x03A),
    DN(___,0,0x03A),
    DN(___,0,0x03A),
    DN(___,0,0x03A),
    DN(E_5,2,0x03A),
    DN(___,0,0x03A),
    DN(___,0,0x03A),
    DN(___,0,0x03A),
    DN(C_5,2,0x049),
    DN(___,0,0x049),
    DN(E_5,2,0x038),
    DN(___,0,0x038),
    DN(___,0,0x038),
    DN(___,0,0x038),
    DN(E_5,2,0x039),
    DN(___,0,0x039),
    DN(___,0,0x039),
    DN(___,0,0x039),
};

static const unsigned char* const order1[] = {P0,P8,P9,P10,P0,P8,P9,P10,P0};
static const unsigned char* const order2[] = {P2,P2,P11,P14,P2,P2,P11,P14,P0};
static const unsigned char* const order3[] = {P1,P1,P1,P1,P1,P1,P1,P1,P0};
static const unsigned char* const order4[] = {P12,P12,P12,P12,P3,P3,P3,P3,P0};

static const unsigned char duty_instruments[] = {
8,0,240,128,
8,0,242,128,
8,128,240,128,
8,128,240,128,
8,128,240,128,
8,128,240,128,
8,128,112,128,
8,128,240,128,
8,128,240,128,
8,128,240,128,
8,128,240,128,
8,128,240,128,
8,128,240,128,
8,128,240,128,
8,128,240,128,
};
static const unsigned char wave_instruments[] = {
0,32,0,128,
0,32,1,128,
0,32,2,128,
0,32,3,128,
0,32,4,128,
0,32,5,128,
0,32,6,128,
0,32,7,128,
0,32,8,128,
0,32,0,128,
0,32,0,128,
0,32,0,128,
0,32,0,128,
0,32,0,128,
0,32,0,128,
};
static const unsigned char noise_instruments[] = {
176,192,0,0,0,0,0,0,
210,0,0,0,0,0,0,0,
113,64,0,0,0,0,0,0,
81,64,0,0,0,0,0,0,
240,0,0,0,0,0,0,0,
240,0,0,0,0,0,0,0,
240,0,0,0,0,0,0,0,
240,0,0,0,0,0,0,0,
240,0,0,0,0,0,0,0,
240,0,0,0,0,0,0,0,
240,0,0,0,0,0,0,0,
240,0,0,0,0,0,0,0,
240,0,0,0,0,0,0,0,
240,0,0,0,0,0,0,0,
240,0,0,0,0,0,0,0,
};

static const unsigned char waves[] = {
    255,255,0,0,0,0,0,0,0,0,0,0,0,0,0,0,
    255,0,0,0,0,0,0,0,0,0,0,0,0,0,0,0,
    255,255,0,0,0,0,0,0,0,0,0,0,0,0,0,0,
    255,255,255,0,0,0,0,0,0,0,0,0,0,0,0,0,
    255,255,255,255,0,0,0,0,0,0,0,0,0,0,0,0,
    255,255,255,255,255,0,0,0,0,0,0,0,0,0,0,0,
    255,255,255,255,255,255,0,0,0,0,0,0,0,0,0,0,
    255,255,255,255,255,255,255,0,0,0,0,0,0,0,0,0,
    255,255,255,255,255,255,255,255,0,0,0,0,0,0,0,0,
    255,255,255,255,255,255,255,255,255,0,0,0,0,0,0,0,
    133,38,183,213,8,205,165,238,196,221,49,186,19,192,78,167,
    197,33,72,96,103,160,24,128,66,209,136,28,140,178,64,180,
    142,157,51,38,4,232,167,32,107,213,134,225,225,90,39,84,
    94,52,176,57,35,91,89,80,88,229,102,163,77,85,148,115,
    92,37,144,147,238,109,99,29,225,224,90,174,109,180,217,90,
    81,146,36,194,90,129,185,83,233,9,90,78,66,109,0,238,
};

const hUGESong_t song = {7, &order_cnt, order1, order2, order3,order4, duty_instruments, wave_instruments, noise_instruments, NULL, waves};
